<svg id="图层_1" data-name="图层 1" xmlns="http://www.w3.org/2000/svg" viewBox="0 0 572.90457 155.86413"><g id="纵向"><path d="M1224.11359,473.169a6.34194,6.34194,0,0,1,.4079,1.39848,5.65967,5.65967,0,0,1-.4079,3.84582V473.169Zm0,99.00077V561.9725c3.49621,1.04886,7.45857,3.20486,8.5657,5.30258-.05827.29135-.11654.641-.17481.99059-1.515.75751-4.19544.93232-5.827,1.92291-.81578.69924-1.68983,1.34021-2.56389,1.98118Zm0-27.38691v-5.24431c1.16541-.34962,2.38908-.69924,3.55448-1.10713,4.48679-1.39848,10.37206-2.50561,12.41151-6.4097a3.46823,3.46823,0,0,0-.75751-1.7481c-4.89468-.75751-10.37206.23308-15.20848,1.10713V529.924c.9906-.23308,1.98119-.641,2.7387-.81578h3.72928c4.60333-1.04886,11.12957-3.55447,16.89831-2.09772.874,1.1654,1.515,1.68983,1.515,3.84582-3.84583,6.23489-11.88709,12.0619-20.39451,13.57692a24.03,24.03,0,0,1-4.4868.34962Zm0-22.90012v-3.32139c4.312-6.58452,7.92473-13.81,11.71228-20.10316,1.39848-2.38907,7.342-9.90591,7.5751-11.88709-.40789-.52443-.81578-1.04886-1.1654-1.515h-1.39848c-2.27253,1.10713-4.48679.46616-7.74991,1.1654-2.68042.5827-5.88527,1.28194-8.97359,2.21426v-1.22367c1.86465-.87405,3.78756-1.68983,5.6522-2.56388,1.98118-.11654,3.90409-.29135,5.827-.40789,3.90409-.87405,7.80818-1.80637,11.654-2.68042a8.77135,8.77135,0,0,1,.9906.5827c2.9135,15.09194-5.88528,15.61637-12.0619,23.308-2.9135,3.78755-5.827,7.63337-8.7405,11.42092C1226.96883,517.57075,1225.57035,519.6102,1224.11359,521.88273Zm-8.39088-56.98809c3.37966,2.156,7.05067,5.01122,8.39088,8.27435v5.2443c-1.34021,2.797-4.89468,4.83641-8.39088,6.4097V464.89464Zm8.39088,22.31742v1.22367a1.37138,1.37138,0,0,1-.46616.11654v-1.1654c.17481-.05827.29135-.11654.46616-.17481Zm0,31.34928v3.32139c-.17481.23308-.29135.40789-.46616.641v-3.32139a2.58722,2.58722,0,0,0,.46616-.641Zm0,11.36265v1.45675a1.283,1.283,0,0,1-.46616.05827v-1.45675c.17481,0,.34962-.05827.46616-.05827Zm0,9.61455v5.24431h-.46616v-5.12777a1.37138,1.37138,0,0,0,.46616-.11654Zm0,22.434v10.19726c-.52443.34962-.99059.75751-1.515,1.10713-2.156.69924-4.54506-.17481-6.87586-.17481v-8.27434a52.37948,52.37948,0,0,1,5.12776-3.49621,14.62583,14.62583,0,0,1,3.26312.641Zm-8.39088-17.18965c2.62215-.17481,5.186.05827,7.92472,0v-5.12777c-2.68042.81578-5.30257,1.63157-7.92472,2.56389v2.56388Zm0-10.60515a6.5801,6.5801,0,0,1,2.03945-2.156l3.671-.17481c.69924-.11654,1.45675-.29135,2.21426-.40789v-1.45675a4.69887,4.69887,0,0,1-2.21426-.05827c-1.28194-.87405.34962-4.25371,2.21426-7.40029v-3.32139a54.8413,54.8413,0,0,1-7.92472,9.84763v5.12776Zm0-16.95658v-4.02063c2.09772-2.797,2.38907-6.06008,0-11.0713v-3.03c3.32139,3.90409,8.04126,8.39088,6.701,12.52805-.75751,2.44734-3.55447,4.0789-6.701,5.59392Zm0-25.17265a37.88448,37.88448,0,0,1,7.92472-3.4962v-1.1654c-2.62215,1.22367-5.30257,2.38907-7.92472,3.61274Zm-4.37025-29.71771c1.28194.69924,2.797,1.57329,4.37025,2.56388V484.823c-2.797,1.28194-5.59392,2.27253-7.28375,3.20485v-6.11835c2.68042-3.78755,4.953-7.983,5.59392-12.58633.40789-3.03-2.9135-4.71987-2.68042-6.9924Zm4.37025,28.66885v1.04886a13.89991,13.89991,0,0,0-3.03,2.33081c.34962,1.45675,1.57329,3.03,3.03,4.71987v3.03c-.17481-.29135-.29135-.641-.52443-.99059-1.28194-2.44734-2.50561-5.186-6.17662-5.2443a5.12434,5.12434,0,0,1-.5827.34962v-1.98119c2.44734-1.10713,4.83641-2.156,7.28375-3.26312Zm0,22.20088v4.02063c-2.44734,1.16541-5.06949,2.21427-7.28375,3.43794v-1.39848a13.55532,13.55532,0,0,0,1.515-.99059,21.98006,21.98006,0,0,0,5.76873-5.0695Zm0,15.84945v5.12776a6.68486,6.68486,0,0,1-3.03,2.9135,8.10674,8.10674,0,0,1-4.25371.23308v-4.71987a4.36163,4.36163,0,0,0,2.09772.5827,35.11909,35.11909,0,0,0,5.186-4.13717Zm0,13.169v2.56388a27.35711,27.35711,0,0,0-3.61274.5827,21.82308,21.82308,0,0,0-3.671,1.86464v-2.09772a72.9657,72.9657,0,0,1,7.28375-2.9135Zm0,22.60877v8.27434a8.32047,8.32047,0,0,0-1.68983.17481c-1.57329.46616-3.61274,3.14658-5.59392,2.156V575.025a1.20906,1.20906,0,0,0,.34962-.5827,5.53228,5.53228,0,0,0,3.14658-2.68042c-.29135-.52443-.52443-1.04886-.81578-1.57329-.81578,0-1.7481,0-2.68042.05827v-2.21426c.93232-.23308,1.80637-.40789,2.68042-.5827a19.39853,19.39853,0,0,0,4.60333-2.62215Zm-7.28375-5.827v-5.186l3.4962.69924a2.8408,2.8408,0,0,1,.17481.40789v.93232c-1.1654,1.10713-2.38907,2.09772-3.671,3.14658Zm0-53.31707a7.75886,7.75886,0,0,0,.5827-1.63156,3.66977,3.66977,0,0,0-.5827-3.03Zm0-17.65582a.30273.30273,0,0,1-.23308.11654c-.75751.46616-2.3308,1.57329-3.90409,2.38907V487.3286c1.39848-1.68983,2.797-3.4962,4.13717-5.41911v6.11835Zm0,6.23489v1.98119a3.56443,3.56443,0,0,1-.69924.29135v-1.98118a3.56388,3.56388,0,0,0,.69924-.29136Zm0,6.75933v4.6616a4.43257,4.43257,0,0,1-.69924,1.10713v-6.70105a7.73668,7.73668,0,0,1,.69924.93232Zm0,18.23852v1.39848l-.69924.34962v-1.34021a4.34613,4.34613,0,0,0,.69924-.40789Zm0,13.34383v4.71987c-.23308-.05827-.46616-.05827-.69924-.11654v-5.06949a4.86061,4.86061,0,0,0,.69924.46616Zm0,12.52806v2.09772l-.69924.34962v-2.156a3.56443,3.56443,0,0,0,.69924-.29135Zm0,8.68223v5.186c-1.34021,1.04886-2.73869,2.09772-4.13717,3.08831v-8.33261a2.92489,2.92489,0,0,0,.81578-.5827c1.10713.23308,2.21426.40789,3.32139.641Zm0,14.21789v2.21426a11.12038,11.12038,0,0,0-4.13717.81578v-2.21426c1.39848-.29135,2.797-.5827,4.13717-.81578Zm0,6.9924v.40789a.8044.8044,0,0,0-.23308-.17481c.11654-.05827.17481-.17481.23308-.23308Zm-4.13717,42.7702V578.696a11.29338,11.29338,0,0,1,.99059,2.73869v4.6616c1.57329,7.51684,4.77814,22.49223.81578,29.9508a3.50989,3.50989,0,0,1-1.80637,1.7481Zm0-69.16652a7.193,7.193,0,0,0,3.43793-1.04886v-2.156c-1.1654.5827-2.27253,1.22367-3.43793,1.86464v1.34021Zm0-10.95477a3.56,3.56,0,0,0,.81578-.40789,7.92687,7.92687,0,0,1,2.62215-.05827v-5.06949a11.78258,11.78258,0,0,1-3.43793-5.186v5.53565a6.17489,6.17489,0,0,1,.23308,1.68983,2.06979,2.06979,0,0,1-.23308.52443v2.97177Zm0-13.22729a8.45342,8.45342,0,0,1,3.43793-3.43793v-1.34021a12.89056,12.89056,0,0,1-3.43793,1.515v3.26312Zm0-14.3927a15.36472,15.36472,0,0,0,3.43793-3.26312v-6.70105a4.83076,4.83076,0,0,1-1.45675-2.797,11.44918,11.44918,0,0,1,1.45675-.75751v-1.98118c-1.1654.52443-2.27253,1.04886-3.43793,1.57329Zm0-19.52046c-1.34021.69924-2.68042,1.1654-3.43794.69924h.34962c.9906-1.22367,2.03946-2.50561,3.08832-3.90409v3.20485Zm0,5.59393v13.92653c-2.797,2.27253-5.88528,4.42852-6.17663,8.39089a5.03789,5.03789,0,0,0,6.17663,2.73869v3.26312a7.63094,7.63094,0,0,0-.34962,1.57329c.11654.34962.23308.641.34962.93232v5.53565c-.46616-2.38907-1.57329-5.06949-3.08832-5.88527-.874-.46616-2.27253-1.10713-3.671-1.68983V504.75134c.87405-2.9135,1.1654-5.65219,0-7.22548v-3.9041a1.745,1.745,0,0,0,.5827-.23308c1.7481,1.22368,1.98118,3.08832,4.83642,3.3214.46616-.17481.93232-.40789,1.34021-.5827Zm0,38.57475v2.97177c-2.21426.99059-4.4868,2.03945-6.75933,2.97178V538.548c2.73869-.81578,5.53566-1.63156,6.75933-3.84582Zm0,12.58633v1.34021a4.01013,4.01013,0,0,1-.75751-.11654v-.81578c.29135-.11654.52443-.29135.75751-.40789Zm0,6.468V562.089c-1.57329,1.1654-3.20486,2.33081-4.83642,3.43794-.23308-.17481-.52443-.40789-.75751-.5827a9.28445,9.28445,0,0,1,.75751-.75751c.93232-1.80638,2.56389-2.44735,2.91351-5.01123-1.10714-1.57329-2.797-1.515-4.83642-.93232v-1.515a32.69464,32.69464,0,0,0,6.75933-2.97177Zm0,15.09194v2.21426a3.59222,3.59222,0,0,0-1.34021,1.04886c-.5827,1.80637.46616,4.37025,1.34021,6.58451v39.09919c-1.92291.874-4.60334.17481-6.75933-.75751v-8.85705a7.28681,7.28681,0,0,0,2.156-.11654c2.27254-3.20485,3.37967-24.99784,1.92292-32.806-.58271-.40789-1.16541-.81578-1.74811-1.1654-.69924.17481-1.515.40789-2.3308.69924v-3.26312c.93232-.641,1.80637-1.28194,2.73869-1.92291C1201.62137,569.3728,1202.96158,569.08145,1204.30179,568.84837Zm-6.75933-75.22661v3.9041c0-.05827-.05827-.11654-.17481-.23308-.93232-1.39848-3.55447-2.44734-3.14658-3.9041,1.57329.23308,2.27253.5827,3.32139.23308Zm0,11.12958a42.65957,42.65957,0,0,1-4.83641,10.37206c-4.6616-.46616-4.60333-5.53565-6.00181-9.09012-2.56388-6.4097-5.827-17.18966-12.295-19.637-1.34021,1.1654,1.34021,5.53565,2.156,7.40029,1.39848,3.26313,3.9041,7.05068,4.4868,10.83823.40789,2.797-.05827,8.33261.93232,12.06189.52443.29135,1.04886.641,1.57329.9906l5.06949-1.39849c.5827.29135,1.1654.52443,1.7481.81578.34962.75752.75751,1.515,1.22367,2.33081-3.20485,4.89468-6.29316,9.78936-9.38147,14.74231v.17481a12.99759,12.99759,0,0,1,1.34021.23308c3.43793-3.72928,6.87586-7.40029,10.31379-11.0713a26.09944,26.09944,0,0,1,3.671,1.39848V504.75134Zm0,33.79661v2.09773c-1.45675.69924-2.97177,1.39848-4.48679,2.03945-1.39848.40789-2.97177.87405-4.42852,1.34021-5.827,4.54506-11.59574,9.09012-17.42274,13.63518v-3.20485a223.572,223.572,0,0,1,21.85126-14.27616,25.4799,25.4799,0,0,1,4.48679-1.63156Zm0,18.18025c-4.83641,1.57329-10.66341,2.56388-14.5675,1.28194,4.02063,5.94355,10.02244,1.63156,14.5675.23308v-1.515Zm0,14.80059v3.26312c-5.12776,1.86464-11.0713,6.468-15.325,8.79877-1.7481.99059-4.60334,3.49621-7.57511,2.3308-1.45675-.52443-2.50561-1.98118-3.43793-3.55447v-3.84582c1.45675.93232,2.85523,2.27253,4.77814,1.7481,6.8176-2.62215,13.57692-5.30257,20.45278-7.92472a13.44259,13.44259,0,0,0,1.10713-.81578Zm0,36.65184v8.85705a3.34245,3.34245,0,0,1-.40789-.23308c-4.89468-2.9135-9.84763-5.827-14.74231-8.74051-3.43793-1.515-7.86646-2.56388-11.18785-4.54506v-2.62215c2.38907.99059,4.60333,2.56388,6.701,3.4962,1.80638.46616,3.61275.99059,5.47739,1.515.75751-.17481,1.515-.34962,2.3308-.5827,1.57329.69924,3.20485,1.45675,4.83641,2.156a36.8983,36.8983,0,0,0,6.9924.69924Zm-26.338-65.78685c1.57329-1.80637,2.73869-3.43794,2.85523-4.312v-.23308c-.34962-.11654-.69924-.23308-.99059-.34962-.5827.81578-1.1654,1.7481-1.86464,2.73869v2.156Zm0-15.73291V513.20049a36.66136,36.66136,0,0,1,5.186,7.74992c1.1654,2.56388.34962,6.87586-2.56388,7.22548A15.73813,15.73813,0,0,1,1171.20441,526.66087Zm0-13.46038v13.46038a4.65616,4.65616,0,0,1-1.39848-1.63156c-.05827-1.7481-.11654-3.4962-.23308-5.2443-1.34021-3.96237-2.73869-7.86646-4.0789-11.82882h.5827a33.88175,33.88175,0,0,1,5.12776,5.2443Zm0,27.03729v2.156c-2.68042,3.14658-6.4097,6.70105-7.45856,6.70105v-.23308c2.73869-1.68983,5.30257-5.47738,7.45856-8.624Zm0,14.21789v3.20485c-1.28194,1.04886-2.62215,2.09772-3.90409,3.08831-2.3308,2.27253-4.19544,4.953-6.87586,6.93414h-2.85523a11.67461,11.67461,0,0,1-1.28194-4.60334v-1.57329a12.1819,12.1819,0,0,1,5.30257-9.498c-.87405,3.14658-3.55447,6.06008-2.9135,9.9059.34962.29135.641.641.99059.93232,3.96236-.69924,7.92472-5.71046,10.89649-7.92472a2.58722,2.58722,0,0,0,.641-.46616Zm0,24.06552V582.367c-.69924-1.34021-1.34021-2.73869-2.03945-3.84582.11654-.23308.29135-.52443.40789-.75751a4.61408,4.61408,0,0,1,1.63156.75751Zm0,22.37569V603.519a11.70876,11.70876,0,0,1-3.20485-2.62215,4.29217,4.29217,0,0,1,.23308-.81578h.17481a14.14969,14.14969,0,0,1,2.797.81578Zm-114.38406-14.33443v-1.04886a4.51047,4.51047,0,0,1,.93232.40789,2.8408,2.8408,0,0,0-.17481.40789,5.412,5.412,0,0,1-.75751.23308Zm0-10.139v-.81578c15.03367-6.11835,29.07674-21.09375,38.34168-32.92256,1.92291-2.38908,10.66341-11.4792,9.03185-15.67464-.99059-1.92291-3.32139-1.57329-4.54506-3.14658-.23308-.81578-.46616-1.68983-.69924-2.50561-.93232-1.1654-2.09772-.81578-3.37966-1.57329-1.86464-2.09772-3.84582-4.25372-5.827-6.40971h.40789c3.14658-.99059,13.4021,5.59393,20.8024,3.4962,3.20485-.87405,5.36084-5.65219,6.9924-8.33261a78.39523,78.39523,0,0,0,10.139-25.81362c.40789-2.62215-1.1654-3.84582-.874-5.65219,1.80637.46616,3.14658,2.21426,4.0789,3.4962,7.16722,8.97358.9906,16.1408-3.20485,24.47341-.99059,1.80637-3.78755,5.30257-2.9135,7.74991.11654.29135.23308.52443.34962.81578,6.23489,1.86464,16.1408-7.74991,20.56932-.40789a4.93481,4.93481,0,0,0-.23308.99059c-3.37966,1.80637-7.5751,1.92291-11.82881,3.49621-1.22367.641-2.62216,1.28194-3.84583,1.92291-4.0789,1.10713-7.342.641-10.31379,2.50561-3.26312,2.03945-5.36084,7.22548-7.40029,10.4886-1.1654,1.98118-5.71047,6.81759-5.0695,9.26494,1.22367,2.38907,5.59393,4.02063,7.57511,5.65219,6.17662,4.89468,10.77995,11.94535,19.46219,14.15961,4.13717,1.04886,11.18784-.93232,14.5675.40789-.75751,3.03005-10.95476,4.54507-13.75172,6.52625-1.28194.87405-1.98118,2.62215-3.72929,2.9135h-.93232c-11.94535-4.19544-14.27615-27.2121-25.28919-27.32864a81.62138,81.62138,0,0,1-30.47522,24.823C1068.824,571.47052,1062.82216,573.97613,1056.82035,576.42347Zm0-.81578v.81578a4.0148,4.0148,0,0,1-.46616.17481,2.692,2.692,0,0,1-.40789-.40789l.17481-.34962a4.85865,4.85865,0,0,0,.69924-.23308Zm0,9.9059v1.04886c-5.88527,1.80638-11.42092,5.827-16.37387,8.857-1.68984.99059-3.26313,1.98118-4.83642,2.9135-4.19544.641-11.18784-4.0789-15.90771-7.63337v-8.09954a30.44243,30.44243,0,0,0,8.1578,3.14658c2.03945.05827,4.19544.11654,6.35143.17481,3.55447.641,7.86646,2.03946,12.23671,1.16541,2.56388-.52444,7.22548-2.68043,10.37206-1.5733Zm-37.118-16.19906V562.089c.52443-2.68042.87405-4.13717,0-5.71046v-4.19544c.05827.05827.11654.11654.11654.17481l1.22367-.17481a5.1146,5.1146,0,0,0,.69924-2.73869,1.40229,1.40229,0,0,0-.69924-.93232,5.60831,5.60831,0,0,0-1.04886-.40789.70217.70217,0,0,1-.29135.29135v-10.139a1.98011,1.98011,0,0,0,1.1654-.17481c2.156-1.04886.52443-4.6616-.641-5.47738a5.25363,5.25363,0,0,1-.52443.5827v-4.37025c6.35143-6.75932,16.14079-13.34384,23.48282-11.53747a23.92317,23.92317,0,0,1,2.50561,3.671c-.5827,1.28194-1.22367,2.62215-1.80637,3.90409v4.48679c-.99059,3.20485-2.03945,6.468-3.03,9.67282-1.34022,6.00182-1.22368,11.18785-2.156,17.65582-.75751,4.95295,1.28195,13.34384-2.50561,15.09194-4.13717,1.10713-7.05067-3.84582-8.624-6.06008a4.04592,4.04592,0,0,1,.29135-.75751h.17481c1.515.29135,2.797,1.63156,4.19544,1.1654,2.56388-1.28194,2.62215-5.53566,3.37966-8.68224.99059-4.6616-.23308-11.18784.69924-16.72349.99059-4.13718,2.03945-8.33262,2.9135-12.52806.81579-3.14658,1.22368-6.64278-2.3308-6.9924-5.01122,1.80637-9.14839,3.90409-12.41151,7.5751.05827,1.86464.641,10.02244,1.04886,10.4886,2.03945,2.62216,5.88527,1.86465,6.11835,6.70106-1.63156,3.32139-5.2443,5.186-6.58451,8.56569-.29135,4.25371-.52443,8.56569-.75751,12.76114-.641.69924-1.28194,1.39848-1.98118,2.156a18.47168,18.47168,0,0,1-2.62215-.11654Zm0-62.23239V496.18565c.17481-.17481.34962-.29135.52443-.46616,6.52624-3.49621,13.11075-6.99241,19.57873-10.48861,2.97177-1.80637,4.48679-4.54506,7.22548-6.4097,3.37966-.05827,5.65219,1.515,6.58451,3.90409-1.98118,5.94354-6.87586,9.84763-11.18784,13.40211-1.39848,1.04886-4.60334,3.03-4.312,5.01122.641,2.3308,3.84583,3.90409,5.41912,5.47738-.05827,1.45675-.52443,1.45675-1.10713,2.3308a79.25815,79.25815,0,0,0-14.3927,6.17662c-.11654-.17481-.29135-.34962-.46616-.5827,2.09772-2.27253,6.35143-3.61274,7.45856-6.75932.93232-2.85523-1.57329-5.30257.17481-7.983,2.38907-3.55447,7.69165-6.35144,8.33262-11.24612a15.822,15.822,0,0,0-1.39848-1.39848c-.23308.11654-.52443.29135-.75751.40789-4.71988,1.92291-13.51865,10.02245-16.7235,13.98481A32.54115,32.54115,0,0,1,1019.70235,507.08214Zm0-10.89649v10.89649c-3.03005,2.56388-6.87587,4.0789-13.2273,3.03h-5.71046a3.43559,3.43559,0,0,1,.46616-.23308c2.797-1.98118,5.47738-4.02063,8.33261-6.00181q4.98209-3.84582,10.139-7.69164Zm0,32.63121v4.37025a33.29735,33.29735,0,0,0-2.21426,3.14658c.17481.93232.29135,1.10713,1.04886,1.515a2.12581,2.12581,0,0,0,1.1654.40789v10.139a2.53606,2.53606,0,0,0-1.1654,2.21426c.34962.52443.75751,1.04886,1.1654,1.57329v4.19544c-.75751-1.34021-2.38907-2.797-5.6522-5.186V550.435c1.86464-3.03,4.953-6.11835,3.61275-11.013-.29135-.29135-.641-.52443-.87405-.75751a3.08663,3.08663,0,0,0-1.63157.34962c-.93232,3.03005-3.26312,4.312-4.02063,7.92473-1.10713,5.53565.5827,12.87767-2.156,16.49041h-.75751c-10.4886-9.96417,1.39848-21.26855,1.92291-31.99024.99059.11654.75751,0,1.1654.5827.75751,2.3308-1.04886,4.0789.34962,6.23489a3.08585,3.08585,0,0,0,1.98118-.5827c.81578-2.38907,3.03-5.59392,6.06009-8.857Zm0,33.27218a48.299,48.299,0,0,0-.81578,6.93414,1.95765,1.95765,0,0,0,.81578.29135V562.089Zm0,20.51105v8.09954c-1.57329-1.1654-2.9135-2.156-3.72929-2.85523-5.47738-3.96237-10.77995-7.69165-17.71408-10.25553-.75751-.17481-1.515-.40789-2.3308-.5827v-3.671c4.77814,1.45675,9.61455,2.85523,14.39269,4.25371,3.26312,1.39848,6.23489,3.32139,9.38148,5.01122Zm-23.77417-12.8194a3.98848,3.98848,0,0,0,1.39848.40789,3.10816,3.10816,0,0,0,2.09772-.40789,5.3197,5.3197,0,0,1,.46616-.75751c.75751-1.98118-1.515-5.71047-3.96236-8.04127v8.79878Zm0-16.37388v-5.47738a6.77017,6.77017,0,0,1,.46616,4.6616,8.62573,8.62573,0,0,0-.46616.75751Zm0-5.47738v5.47738c-8.857,2.62215-8.33262-5.71046-9.90591-12.46978-.46616-2.21427-2.09772-3.20486-2.3308-5.76874.23308-.23308.46616-.40789.641-.5827,2.68042.40789,9.43975,7.63338,11.59574,13.34384Zm0,13.05248v8.79878a.98936.98936,0,0,1-.34962-.34962c-.05827-.17481-3.671-9.78937-3.671-9.84764a1.85192,1.85192,0,0,1,.5827-.5827,6.877,6.877,0,0,1,3.43794,1.98118Zm0,12.35325c-2.27253-.641-4.54507-1.28194-6.75933-1.98118-3.61274-1.1654-7.05067-2.85523-11.82881-2.73869v1.39848c3.671,1.63156,7.45856,3.32139,11.18784,5.01122,2.50561.69924,4.95295,1.34021,7.4003,1.98118v-3.671ZM855.67223,571.1209V559.17554c7.28375,1.86464,13.11075,8.50743,8.624,15.09194-5.65219,1.68983-7.45856-.23308-8.624-3.14658Zm0-35.42818v-8.44915a.73906.73906,0,0,0,.34962-.05827,21.20077,21.20077,0,0,1,6.00181.5827.84218.84218,0,0,1,.11654.40789c.05827,1.515,0,2.44734-.5827,3.26312a13.64176,13.64176,0,0,0-5.88527,4.25371Zm0-16.60695v-7.57511a13.54085,13.54085,0,0,0,3.37966-1.80637,7.1658,7.1658,0,0,1,6.00181,3.671c-.17481.29135-.34962.52443-.52443.81578-2.156,1.34021-4.312,2.68042-6.468,4.07891-.75751.29135-1.57329.5827-2.38907.81578Zm56.23057-43.586c3.32139,0,17.8889,4.77814,18.996,6.4097,1.28194,1.92291.52443,6.52624,1.57329,8.39088,1.515.46616,7.28375.99059,10.08071.17481,1.57329-.93232,3.14658-1.80637,4.6616-2.73869,3.03-.641,9.61456,1.68983,8.97359,4.0789-2.09772,3.37967-5.36084,1.98118-9.90591,3.14659-3.26312.81578-16.37387,7.45856-18.6464,6.4097a2.8408,2.8408,0,0,1,.17481-.40789,18.6632,18.6632,0,0,0,6.4097-3.671l-.17481-1.39848c-.34962-.641-.34962-.641-.99059-.93232-5.2443-1.34022-10.3138,4.19544-13.98481,5.827a27.92468,27.92468,0,0,1-11.24611,2.3308c1.57329-3.72928,14.62577-6.64278,12.99421-14.80059-1.04886-5.36084-6.9924-7.92472-9.3232-12.41151a2.692,2.692,0,0,1,.40789-.40789Zm21.73472,34.61239c8.1578-.34962,17.94717,7.69165,9.498,11.654-1.98118-.40789-4.0789-2.27253-6.4097-1.7481-1.68983.34962-2.3308,1.45675-4.83641,1.515v-.34962a.8044.8044,0,0,0-.17481-.23308c.5827-2.156,2.62215-3.37966,3.671-5.24431-.46616-3.14658-4.25371-3.78755-6.81759-2.09772-3.4962,2.27253-4.54507,7.22549-8.33262,9.498-3.20485,1.92291-8.09953,1.1654-12.06189,2.50561l-10.66342,5.2443a2.27476,2.27476,0,0,1-1.1654-1.1654c.99059-5.53565,7.342-7.51683,11.07131-10.4886,2.38907-2.50562,4.77814-5.01123,7.16721-7.57511h.23308v.81578c-.46616.99059-1.39848,2.50561-.99059,3.671.29135.641.29135.641.99059.99059,3.4962.93233,16.37388-5.30257,18.82122-6.9924Zm-8.7405,21.90953c4.0789.87405,9.61455,5.827,7.5751,12.58633-.99059,3.37966-5.36084,4.83641-7.40029,7.40029.52443,3.32139,4.54506,6.468,6.81759,8.33261,7.74991,6.17663,13.69345,13.28557,22.90012,18.41333,3.43793,1.86464,8.7405,2.56388,11.0713,5.59392a5.32775,5.32775,0,0,1-.40789.81578c-4.42852,0-7.22548-1.04886-11.013-1.39848-3.08831-.29135-5.65219.87405-8.15781,1.39848-7.92472,1.45675-14.91712-6.75932-17.71408-10.72168-3.90409-5.47738-.05827-17.71409-9.32321-17.77236-3.32139,1.68983-5.30257,6.06008-7.5751,8.857-4.312,5.36084-11.07131,8.91531-17.83063,11.82881-2.85523,1.22367-7.63337,4.42852-10.89649,2.9135.17481-.23308.40789-.52443.5827-.75751,6.75932-2.97177,16.95657-8.7405,21.152-14.15961,2.38907-2.97178,3.61274-6.70106,5.65219-10.08072,1.57329-2.62215,4.89468-3.96236,5.06949-7.74991-2.156-4.25371-8.33261-11.36266-12.00362-14.10135a6.40151,6.40151,0,0,1,.52443-.81578h.17481c8.33261.34962,8.857,10.54688,14.39269,11.59574C921.867,541.40319,923.44026,536.74158,924.897,532.02171Zm-69.22479-20.51105v7.57511c-2.38908.81578-4.83642,1.63156-7.28376,2.44734-2.68042,1.10713-5.65219,2.56388-8.79877,3.84582V519.6102a3.56,3.56,0,0,0,.81578-.40789c2.21426-.75751,4.25371-1.515,6.4097-2.33081,1.57329-1.1654,3.14658-2.3308,4.6616-3.4962,1.45675-.75751,2.85523-1.28194,4.19545-1.86464Zm0,15.73291v8.44915c-1.74811,2.03945-3.20486,4.37025-5.36085,6.17663-2.09772,1.86464-5.88527,3.55447-7.16721,6.06008v.17481c1.45675-.05827,3.03-.11654,4.42852-.17481.23308-.52443.40789-1.04886.5827-1.57329a39.92738,39.92738,0,0,1,6.9924-.17481c.11655.99059.29136,2.03945.4079,3.08831-2.7387,4.13717-9.96418,6.00181-14.9754,7.16721.05827,6.29316,8.68223,27.09556-.99059,29.01847V547.05538c0-.05827.05827-.05827.05827-.11654a.05707.05707,0,0,1-.05827-.05827V534.70213a56.16248,56.16248,0,0,1,9.20666-6.35143c2.27253-.34962,4.54506-.69924,6.87587-1.10713Zm0,31.932a17.06579,17.06579,0,0,0-4.54507-.5827,10.2754,10.2754,0,0,0-1.57329.40789,2.09279,2.09279,0,0,0-.40789.5827c.34962,2.50561,2.56388,2.797,3.671,4.42853,1.515,2.156,1.98118,4.89468,2.85524,7.10894V559.17554Zm-16.08253-48.772v-3.4962a2.06979,2.06979,0,0,0,.23308-.52443,4.42518,4.42518,0,0,0-.23308-4.42852V491.58231a10.20008,10.20008,0,0,1,1.86464.23308c4.71987,1.28194,10.72168,4.953,11.77054,9.90591C854.44855,507.43176,844.65919,509.23813,839.5897,510.40353Zm0-18.82122v10.37207c-2.68042-4.48679-11.82882-7.51683-13.69346-11.30439v-1.1654c2.44734.641,4.89468,1.28194,7.4003,1.98118,2.03945.40789,4.19544,0,6.29316.11654Zm0,15.325v3.4962a13.108,13.108,0,0,1-1.28194.29135c-2.09772.52443-2.9135,2.3308-5.53565,2.50561.93232-2.97177,5.186-3.55447,6.81759-6.29316Zm0,12.70287v5.76873a52.75489,52.75489,0,0,1-8.857,2.97177c-3.78755.81578-14.5675.81578-13.9848-3.08831,2.56388.11654,5.12776.23308,7.63337.34962,5.71046-1.10713,10.37207-3.84582,15.20848-6.00181Zm0,15.09193v12.17844l-.52443-.52443c-2.3308.11654-4.48679.29135-6.11835,1.34021.11654,7.51683-.9906,15.09193-7.4003,15.55809-4.60333-2.62215-3.4962-19.11256-2.156-24.823.69924-.46616,1.39848-.87405,2.156-1.34021,1.7481,1.04886,3.61274,2.03945,5.41911,3.08831a34.33426,34.33426,0,0,0,8.624-5.47738Zm0,12.35325c-1.515,1.63156-2.27253,4.312-3.37966,6.29316.46616,2.09772,1.45675,3.20485,1.34021,6.23489-2.156,2.85523-6.29317,3.4962-9.43975,5.36085-4.0789,2.9135-8.09953,5.827-12.12016,8.7405-1.92291.75751-3.84582,1.57329-5.827,2.3308-.93232.81578-1.80638,1.68983-2.68043,2.50561v.5827a20.95153,20.95153,0,0,1,3.26313,5.827c4.37025,2.50562,7.5751-1.1654,9.498-3.4962,1.80637-1.98118,16.19907-15.49982,17.71409-15.90771-.23308,2.27253-.52443,4.54506-.81578,6.81759-1.57329.87405-3.90409,1.1654-5.24431,2.3308,1.515,4.0789,3.49621,8.624,7.05068,10.83822.23308,0,.40789-.05827.641-.05827V547.05538ZM775.784,581.84258V569.48934c3.14658-.40789,5.827-1.45675,7.983,1.28194,5.47738,7.05067.11654,10.83822-7.983,11.0713Zm0-45.85851V523.33948a6.04124,6.04124,0,0,0,3.08831-.81578A9.33631,9.33631,0,0,0,775.784,513.084v-2.27253c2.09772,1.1654,4.13717,2.38907,6.23489,3.55447,2.50562.99059,5.01123,1.92291,7.57511,2.9135-.11654,2.50562-11.94536,17.3062-13.81,18.64641Zm0-25.17265V513.084a5.75963,5.75963,0,0,0-1.92291-.87405c-2.62215,2.50561-1.34021,9.1484.75751,11.07131a8.624,8.624,0,0,0,1.1654.05827v12.64459c-1.80637,1.04886-3.61274,1.98118-5.41911,3.03-2.09772,2.50562-1.39848,8.15781-3.14658,11.013a67.52283,67.52283,0,0,1-16.66523,17.83063c2.44734-6.93414,4.89468-13.92654,7.342-20.91894.99059-4.02063-1.39848-8.15781-5.41911-7.51684-1.80637.69924-3.61274,1.34022-5.36084,2.09773a2.29705,2.29705,0,0,1-.29135-.81578c2.3308-3.20486,9.26493-3.9041,10.72168-7.69165,1.68983-4.54506-1.22367-9.67282-.40789-14.74231,1.86464-12.12017-.05827-22.90012,5.0695-31.46582,3.03.93232,9.73109,10.37207,10.66341,13.57692,1.22367,4.13717-.99059,6.35143,1.34021,9.498.52443.34962,1.04886.641,1.57329.93232Zm0,58.67792v12.35324a8.74061,8.74061,0,0,1-1.7481,0c-2.21426,4.37025-5.41911,10.48861-9.14839,13.40211-1.10713.87405-4.0789,2.85523-5.827,1.1654l.40789-.40789c1.34022-3.14658,8.5657-10.95477,6.8176-14.91713a5.80112,5.80112,0,0,0-1.7481-1.98118c-5.12777.17481-8.97359,1.7481-12.6446-.75751a3.53726,3.53726,0,0,1,.40789-.5827,1.93988,1.93988,0,0,0,.34962-.17481c3.14658,1.04886,11.4792-1.45675,13.05249-3.4962.87405-1.86464,1.80637-3.671,2.68042-5.47738,1.28194.29135,2.62215.52443,3.90409.81578a11.78119,11.78119,0,0,0,3.4962.05827Zm-79.01415,30.24214V588.25229c2.27253-2.33081,4.25371-4.54507,5.59392-5.6522,5.76873-4.54506,12.76113-9.61455,15.73291-16.8983,1.04886-2.56389.11654-5.94355.75751-9.43975.52443-3.08831,1.04886-6.23489,1.57329-9.3232.05827-7.983.11654-16.02426.17481-24.00725.46616-2.50561,0-6.2349.5827-9.32321,1.04886-5.186,2.85523-13.81,1.63156-20.97721-1.28194-7.22548-4.312-12.64459-8.79878-16.54868-1.39848-1.22367-6.58451-2.68042-6.4097-4.0789,3.32139,0,5.59392.87405,8.33261,1.39848,4.4868.81578,8.5657-.5827,11.4792,1.34021,5.47738,3.55447,10.83822,14.5675,8.33261,24.47341-1.34021,5.41911-4.54506,9.3232-6.58451,13.9848-2.62215,6.06009-3.671,13.57692-4.83641,20.56932.05827,7.05068.17481,14.21789.23308,21.32683,1.1654,3.90409,2.27253,7.74991,3.43793,11.59574v4.0789c1.22367,5.36084,3.84582,11.24611-2.73869,13.9848-3.08831-.29135-8.27434-3.4962-8.74051-6.23489.11654-1.10713.29135-2.21426.40789-3.26312-.17481-.29135-.40789-.52443-.5827-.81578a8.25041,8.25041,0,0,0-1.1654.23308c-2.09772,1.1654-3.08831,5.2443-4.48679,7.16721-4.25371,6.00182-10.4886,11.18785-13.92653,17.8889Zm0-25.81362c1.22367-.99059,2.38907-2.09772,3.26312-2.73869,5.65219-4.37025,18.06371-12.00363,10.89649-21.32683-2.3308-3.03-8.33261-4.95295-13.9848-3.90409a.21406.21406,0,0,1-.17481.05827v9.9059a3.24776,3.24776,0,0,1,1.68983,1.34021c1.68983,2.68042.23308,7.28376-1.68983,11.24612Zm0-27.91134v9.9059c-1.86465-.81578-4.42853-.75751-6.06009-1.80637L680.396,545.19074c.11654-.34962.29135-.641.40789-.99059,3.20485.93232,6.468,1.80637,9.73109,2.73869,2.50561.52443,4.42852-.52443,6.2349-.93232Zm0,22.49223v5.41911c-1.515,1.1654-3.14659,2.156-4.71988,1.92291v-.23308c.99059-.81578,3.03-3.72928,4.71988-7.10894Zm0,19.75354v11.47919h-.05827c-1.80638,3.4962-2.62216,8.624-6.40971,10.08072-7.69164,3.03-20.45278-13.46038-10.66341-18.06371,1.45675,1.1654,2.97177,2.3308,4.48679,3.4962C688.08763,596.29355,692.86577,592.15638,696.76987,588.25229Z" transform="translate(-676.09033 -462.33076)"/></g></svg>