<svg id="图层_1" data-name="图层 1" xmlns="http://www.w3.org/2000/svg" viewBox="0 0 573.57 215.46"><g id="纵向"><path d="M1224.11,443.61a6,6,0,0,1,.41,1.4,5.62,5.62,0,0,1-.41,3.84v-5.24Zm0,99v-10.2c3.5,1.05,7.46,3.21,8.57,5.3-.06.29-.12.64-.18,1-1.51.76-4.19.94-5.82,1.93-.82.7-1.69,1.34-2.57,2Zm0-27.39V510c1.17-.35,2.39-.7,3.56-1.11,4.48-1.4,10.37-2.51,12.41-6.41a3.5,3.5,0,0,0-.76-1.75c-4.89-.76-10.37.23-15.21,1.11v-1.46c1-.23,2-.64,2.74-.81h3.73c4.6-1.05,11.13-3.56,16.9-2.1.87,1.16,1.51,1.69,1.51,3.84-3.84,6.24-11.88,12.07-20.39,13.58a24.14,24.14,0,0,1-4.49.35Zm0-22.9V489c4.32-6.59,7.93-13.81,11.72-20.1,1.39-2.39,7.34-9.91,7.57-11.89-.41-.53-.81-1.05-1.16-1.52h-1.4c-2.28,1.11-4.49.47-7.75,1.17-2.68.58-5.89,1.28-9,2.21v-1.22c1.87-.87,3.79-1.69,5.66-2.56,2-.12,3.9-.3,5.82-.41,3.91-.88,7.81-1.81,11.66-2.68a8.48,8.48,0,0,1,1,.58c2.91,15.09-5.89,15.62-12.06,23.31-2.92,3.79-5.83,7.63-8.75,11.42C1227,488,1225.57,490.05,1224.11,492.32Zm-8.39-57c3.38,2.16,7,5,8.39,8.28v5.24c-1.34,2.8-4.89,4.84-8.39,6.41V435.33Zm8.39,22.32v1.22a1.31,1.31,0,0,1-.46.12v-1.17c.17-.05.29-.11.46-.17Zm0,31.35v3.32l-.46.64v-3.32a2.49,2.49,0,0,0,.46-.64Zm0,11.36v1.46a1.22,1.22,0,0,1-.46.06v-1.46c.17,0,.35-.06.46-.06Zm0,9.62v5.24h-.46v-5.13a1.54,1.54,0,0,0,.46-.11Zm0,22.43v10.2c-.52.35-1,.76-1.51,1.1-2.16.7-4.55-.17-6.88-.17v-8.27a52.08,52.08,0,0,1,5.13-3.5,14.62,14.62,0,0,1,3.26.64Zm-8.39-17.19c2.62-.17,5.19.06,7.93,0v-5.13c-2.68.82-5.31,1.63-7.93,2.57v2.56Zm0-10.6a6.61,6.61,0,0,1,2-2.16l3.67-.18c.7-.11,1.46-.29,2.22-.4v-1.46a4.72,4.72,0,0,1-2.22-.06c-1.28-.87.35-4.25,2.22-7.4v-3.32a55.19,55.19,0,0,1-7.93,9.85v5.13Zm0-17v-4c2.1-2.8,2.39-6.06,0-11.07v-3c3.32,3.9,8,8.39,6.7,12.53-.75,2.44-3.55,4.07-6.7,5.59Zm0-25.17a37.8,37.8,0,0,1,7.93-3.5v-1.17c-2.62,1.23-5.31,2.39-7.93,3.62Zm-4.37-29.72c1.28.7,2.8,1.57,4.37,2.56v19.93c-2.79,1.28-5.59,2.27-7.28,3.21v-6.12c2.68-3.79,5-8,5.59-12.59.41-3-2.91-4.72-2.68-7Zm4.37,28.67v1.05a14,14,0,0,0-3,2.33c.35,1.45,1.58,3,3,4.72v3c-.17-.29-.29-.64-.52-1-1.28-2.45-2.51-5.19-6.18-5.25a3.86,3.86,0,0,1-.58.35v-2c2.45-1.11,4.84-2.16,7.28-3.26Zm0,22.2v4c-2.44,1.16-5.07,2.21-7.28,3.44v-1.4a13.1,13.1,0,0,0,1.51-1,22,22,0,0,0,5.77-5.07Zm0,15.85v5.13a6.64,6.64,0,0,1-3,2.91,8.07,8.07,0,0,1-4.25.23V503a4.35,4.35,0,0,0,2.1.58,35.16,35.16,0,0,0,5.18-4.13Zm0,13.17v2.56a28.17,28.17,0,0,0-3.61.58,21.59,21.59,0,0,0-3.67,1.87v-2.1a71.7,71.7,0,0,1,7.28-2.91Zm0,22.61v8.27a8.89,8.89,0,0,0-1.69.17c-1.57.47-3.61,3.15-5.59,2.16v-.41a1.25,1.25,0,0,0,.35-.58,5.59,5.59,0,0,0,3.15-2.68c-.3-.52-.53-1.05-.82-1.57-.82,0-1.75,0-2.68,0v-2.21c.93-.23,1.81-.41,2.68-.58a19.34,19.34,0,0,0,4.6-2.62Zm-7.28-5.83v-5.19l3.5.7c0,.12.11.23.17.41v.93c-1.17,1.11-2.39,2.1-3.67,3.15Zm0-53.32a7.52,7.52,0,0,0,.58-1.63,3.69,3.69,0,0,0-.58-3Zm0-17.65a.34.34,0,0,1-.23.11c-.76.47-2.33,1.58-3.91,2.39v-3.2c1.4-1.69,2.8-3.5,4.14-5.42v6.12Zm0,6.23v2a3.46,3.46,0,0,1-.7.29v-2a3.46,3.46,0,0,0,.7-.29Zm0,6.76v4.66a4.61,4.61,0,0,1-.7,1.11v-6.7a8.68,8.68,0,0,1,.7.93Zm0,18.24v1.4l-.7.35v-1.34a5.09,5.09,0,0,0,.7-.41Zm0,13.34v4.72c-.23-.06-.47-.06-.7-.11v-5.07a4.67,4.67,0,0,0,.7.46Zm0,12.53v2.1l-.7.35v-2.16a3.46,3.46,0,0,0,.7-.29Zm0,8.68v5.19c-1.34,1-2.74,2.1-4.14,3.09v-8.34a3,3,0,0,0,.82-.58c1.1.23,2.21.41,3.32.64Zm0,14.22v2.21a11.25,11.25,0,0,0-4.14.82v-2.21c1.4-.3,2.8-.59,4.14-.82Zm0,7v.41a.72.72,0,0,0-.23-.17c.11-.06.17-.18.23-.24Zm-4.14,42.77v-39.1a11,11,0,0,1,1,2.74v4.66c1.58,7.52,4.78,22.5.82,30a3.5,3.5,0,0,1-1.81,1.75Zm0-69.16a7.21,7.21,0,0,0,3.44-1.05v-2.16c-1.17.58-2.27,1.23-3.44,1.87v1.34Zm0-11a3.31,3.31,0,0,0,.82-.41,8,8,0,0,1,2.62-.05v-5.07a11.89,11.89,0,0,1-3.44-5.19v5.54a5.94,5.94,0,0,1,.23,1.69,1.69,1.69,0,0,1-.23.52v3Zm0-13.23a8.45,8.45,0,0,1,3.44-3.43v-1.34a12.83,12.83,0,0,1-3.44,1.51v3.26Zm0-14.39a15.35,15.35,0,0,0,3.44-3.26v-6.7a4.88,4.88,0,0,1-1.46-2.8,13.4,13.4,0,0,1,1.46-.76v-2l-3.44,1.58Zm0-19.52c-1.34.7-2.68,1.17-3.44.7h.35c1-1.22,2-2.51,3.09-3.9V461Zm0,5.6v13.92c-2.8,2.27-5.88,4.43-6.17,8.39a5,5,0,0,0,6.17,2.74v3.26a8.15,8.15,0,0,0-.35,1.58c.12.35.24.64.35.93v5.54c-.46-2.39-1.57-5.07-3.09-5.89-.87-.47-2.27-1.11-3.67-1.69V475.19c.88-2.91,1.17-5.65,0-7.23v-3.9a2,2,0,0,0,.59-.23c1.74,1.22,2,3.08,4.83,3.32.47-.18.93-.41,1.34-.58Zm0,38.57v3c-2.21,1-4.49,2-6.76,3V509c2.74-.82,5.54-1.64,6.76-3.85Zm0,12.59v1.34a4.07,4.07,0,0,1-.76-.12v-.82a7.53,7.53,0,0,0,.76-.4Zm0,6.46v8.34c-1.57,1.16-3.2,2.33-4.83,3.43-.24-.17-.53-.4-.76-.58a9.08,9.08,0,0,1,.76-.76c.93-1.8,2.56-2.44,2.91-5-1.11-1.57-2.8-1.51-4.84-.93v-1.51a33,33,0,0,0,6.76-3Zm0,15.1v2.21a3.57,3.57,0,0,0-1.34,1c-.58,1.81.47,4.37,1.34,6.58v39.1c-1.92.88-4.6.18-6.76-.75v-8.86a7.12,7.12,0,0,0,2.16-.12c2.27-3.2,3.38-25,1.92-32.8-.58-.41-1.16-.82-1.75-1.17-.7.18-1.51.41-2.33.7V542c.93-.64,1.81-1.29,2.74-1.93C1201.62,539.81,1203,539.52,1204.3,539.29Zm-6.76-75.23V468s-.06-.11-.17-.23c-.93-1.4-3.56-2.45-3.15-3.9,1.57.23,2.27.58,3.32.23Zm0,11.13a42.67,42.67,0,0,1-4.83,10.37c-4.67-.46-4.61-5.53-6-9.09-2.56-6.41-5.82-17.19-12.29-19.64-1.34,1.17,1.34,5.54,2.16,7.4,1.39,3.27,3.9,7.06,4.48,10.84.41,2.8-.06,8.34.93,12.06.53.3,1,.65,1.58,1l5.07-1.4c.58.29,1.16.52,1.75.81a25.06,25.06,0,0,0,1.22,2.33c-3.21,4.9-6.29,9.79-9.38,14.75v.17c.41.06.87.12,1.34.23,3.44-3.73,6.87-7.4,10.31-11.07a26.94,26.94,0,0,1,3.67,1.4V475.19Zm0,33.8v2.09c-1.45.7-3,1.4-4.48,2-1.4.41-3,.88-4.43,1.34-5.83,4.55-11.6,9.09-17.43,13.64v-3.21a225,225,0,0,1,21.86-14.27,25,25,0,0,1,4.48-1.63Zm0,18.18c-4.83,1.57-10.66,2.56-14.57,1.28,4,5.94,10,1.63,14.57.23v-1.51Zm0,14.8v3.26c-5.13,1.86-11.07,6.47-15.32,8.8-1.75,1-4.61,3.49-7.58,2.33-1.45-.53-2.5-2-3.44-3.56V549c1.46.93,2.86,2.27,4.78,1.75,6.82-2.63,13.58-5.31,20.46-7.93.34-.23.75-.52,1.1-.81Zm0,36.65v8.86a4.49,4.49,0,0,1-.41-.24c-4.89-2.91-9.84-5.82-14.74-8.74-3.44-1.51-7.86-2.56-11.19-4.54v-2.63c2.39,1,4.61,2.57,6.71,3.5,1.8.47,3.61,1,5.47,1.52.76-.18,1.52-.35,2.33-.59,1.58.7,3.21,1.46,4.84,2.16a36.76,36.76,0,0,0,7,.7Zm-26.34-65.79c1.58-1.8,2.74-3.44,2.86-4.31v-.23l-1-.35c-.58.81-1.17,1.75-1.87,2.74v2.15Zm0-15.73V483.64a36.5,36.5,0,0,1,5.19,7.75c1.17,2.56.35,6.87-2.56,7.22A16,16,0,0,1,1171.2,497.1Zm0-13.46V497.1a4.68,4.68,0,0,1-1.39-1.63c-.06-1.75-.12-3.5-.24-5.25-1.34-4-2.74-7.86-4.08-11.83h.59a34.26,34.26,0,0,1,5.12,5.25Zm0,27v2.15c-2.68,3.15-6.41,6.7-7.45,6.7v-.23c2.73-1.69,5.3-5.48,7.45-8.62Zm0,14.21v3.21c-1.28,1-2.62,2.1-3.9,3.09-2.33,2.27-4.2,4.95-6.88,6.93h-2.85a11.65,11.65,0,0,1-1.28-4.6v-1.58a12.16,12.16,0,0,1,5.3-9.49c-.87,3.14-3.55,6.06-2.91,9.9.35.29.64.64,1,.93,4-.69,7.92-5.71,10.89-7.92a2.36,2.36,0,0,0,.64-.47Zm0,24.07v3.84c-.69-1.34-1.34-2.73-2-3.84.12-.23.3-.53.41-.76a4.57,4.57,0,0,1,1.63.76Zm0,22.37V574a11.7,11.7,0,0,1-3.2-2.63,4.92,4.92,0,0,1,.23-.81h.18a14.33,14.33,0,0,1,2.79.81ZM1056.82,557v-1a4.37,4.37,0,0,1,.93.41,2.84,2.84,0,0,0-.17.41,6.87,6.87,0,0,1-.76.23Zm0-10.14v-.81c15-6.12,29.08-21.1,38.34-32.93,1.92-2.39,10.67-11.48,9-15.67-1-1.92-3.32-1.57-4.54-3.15-.23-.81-.47-1.69-.7-2.5-.93-1.17-2.1-.82-3.38-1.58-1.86-2.09-3.85-4.25-5.83-6.41h.41c3.15-1,13.4,5.6,20.8,3.5,3.21-.87,5.36-5.65,7-8.33a78.35,78.35,0,0,0,10.13-25.82c.41-2.62-1.16-3.84-.87-5.65,1.81.47,3.15,2.22,4.08,3.5,7.17,9,1,16.14-3.21,24.47-1,1.81-3.78,5.3-2.91,7.75.12.29.23.52.35.82,6.24,1.86,16.14-7.75,20.57-.41a4.79,4.79,0,0,0-.23,1c-3.38,1.81-7.58,1.92-11.83,3.5-1.23.64-2.62,1.28-3.85,1.92-4.08,1.11-7.34.64-10.31,2.5-3.26,2-5.36,7.23-7.4,10.49-1.17,2-5.71,6.82-5.07,9.27,1.22,2.39,5.59,4,7.57,5.65,6.18,4.89,10.78,11.94,19.47,14.16,4.13,1,11.18-.93,14.56.41-.75,3-11,4.54-13.75,6.52-1.28.88-2,2.63-3.73,2.92h-.93c-11.95-4.2-14.28-27.22-25.29-27.33a81.68,81.68,0,0,1-30.47,24.82C1068.82,541.91,1062.82,544.41,1056.82,546.86Zm0-.81v.81a3.91,3.91,0,0,1-.47.18,3,3,0,0,1-.4-.41l.17-.35a6.39,6.39,0,0,0,.7-.23Zm0,9.9v1c-5.88,1.81-11.42,5.83-16.37,8.86-1.69,1-3.27,2-4.84,2.91-4.2.64-11.19-4.08-15.91-7.63V553a30.48,30.48,0,0,0,8.16,3.14l6.35.18c3.56.64,7.87,2,12.24,1.16,2.56-.52,7.22-2.68,10.37-1.57Zm-37.12-16.2v-7.22c.53-2.68.88-4.14,0-5.71v-4.2c.06.06.12.12.12.18l1.22-.18a5.09,5.09,0,0,0,.7-2.74,1.38,1.38,0,0,0-.7-.93,6.2,6.2,0,0,0-1-.41.58.58,0,0,1-.29.29V508.69a2,2,0,0,0,1.17-.17c2.15-1,.52-4.66-.64-5.48a4.36,4.36,0,0,1-.53.58v-4.37c6.35-6.75,16.14-13.34,23.49-11.53a23.89,23.89,0,0,1,2.5,3.67c-.58,1.28-1.22,2.62-1.81,3.9v4.49c-1,3.2-2,6.47-3,9.67-1.34,6-1.22,11.19-2.15,17.66-.76,4.95,1.28,13.34-2.51,15.09-4.13,1.11-7-3.85-8.62-6.06a4.21,4.21,0,0,1,.29-.76h.17c1.52.29,2.8,1.63,4.2,1.17,2.56-1.28,2.62-5.54,3.38-8.68,1-4.67-.23-11.19.7-16.73,1-4.14,2-8.33,2.91-12.53.82-3.14,1.23-6.64-2.33-7-5,1.81-9.15,3.91-12.41,7.58.06,1.86.64,10,1,10.49,2,2.62,5.88,1.86,6.12,6.7-1.63,3.32-5.25,5.18-6.59,8.56-.29,4.26-.52,8.57-.75,12.76l-2,2.16a18,18,0,0,1-2.62-.12Zm0-62.23v-10.9c.18-.17.35-.29.53-.46,6.52-3.5,13.11-7,19.58-10.49,3-1.81,4.48-4.55,7.22-6.41,3.38-.06,5.65,1.51,6.59,3.9-2,5.95-6.88,9.85-11.19,13.41-1.4,1-4.61,3-4.31,5,.64,2.33,3.84,3.9,5.41,5.47,0,1.46-.52,1.46-1.1,2.33a80,80,0,0,0-14.4,6.18c-.11-.17-.29-.35-.46-.58,2.1-2.27,6.35-3.61,7.46-6.76.93-2.86-1.58-5.3.17-8,2.39-3.56,7.69-6.36,8.33-11.25a15.24,15.24,0,0,0-1.39-1.4l-.76.41c-4.72,1.92-13.52,10-16.72,14A32.84,32.84,0,0,1,1019.7,477.52Zm0-10.9v10.9c-3,2.56-6.87,4.08-13.22,3h-5.72a3.28,3.28,0,0,1,.47-.23c2.8-2,5.48-4,8.33-6q5-3.85,10.14-7.7Zm0,32.63v4.37a35,35,0,0,0-2.21,3.15c.17.93.29,1.11,1,1.52a2.07,2.07,0,0,0,1.16.4v10.14a2.56,2.56,0,0,0-1.16,2.22c.35.52.75,1.05,1.16,1.57v4.2c-.76-1.34-2.39-2.8-5.65-5.19v-.76c1.86-3,5-6.12,3.61-11-.29-.29-.64-.52-.87-.76a3.11,3.11,0,0,0-1.63.35c-.94,3-3.27,4.31-4,7.93-1.11,5.53.58,12.87-2.16,16.49h-.76c-10.49-10,1.4-21.27,1.93-32,1,.11.75,0,1.16.58.76,2.33-1,4.08.35,6.23a3,3,0,0,0,2-.58c.82-2.39,3-5.59,6.06-8.86Zm0,33.28a47.64,47.64,0,0,0-.81,6.93,1.88,1.88,0,0,0,.81.29v-7.22Zm0,20.51v8.1c-1.57-1.17-2.91-2.16-3.73-2.86-5.47-4-10.78-7.69-17.71-10.25-.76-.18-1.52-.41-2.33-.59v-3.67c4.78,1.46,9.61,2.86,14.39,4.26,3.26,1.4,6.24,3.32,9.38,5Zm-23.77-12.82a4.09,4.09,0,0,0,1.4.41,3.11,3.11,0,0,0,2.09-.41,6.26,6.26,0,0,1,.47-.76c.76-2-1.51-5.71-4-8v8.8Zm0-16.38v-5.47a6.73,6.73,0,0,1,.46,4.66,8.46,8.46,0,0,0-.46.76Zm0-5.47v5.47c-8.86,2.63-8.33-5.71-9.91-12.47-.46-2.21-2.1-3.2-2.33-5.76.23-.24.47-.41.64-.59,2.68.41,9.44,7.64,11.6,13.35Zm0,13v8.8a1.05,1.05,0,0,1-.35-.35c-.06-.18-3.67-9.79-3.67-9.85a1.78,1.78,0,0,1,.58-.58,6.9,6.9,0,0,1,3.44,2Zm0,12.35c-2.27-.64-4.55-1.28-6.76-2-3.61-1.16-7-2.85-11.83-2.74v1.4c3.67,1.63,7.46,3.32,11.19,5,2.5.7,5,1.34,7.4,2v-3.67Zm-140.26-2.21V529.61c7.29,1.87,13.11,8.51,8.63,15.1-5.66,1.69-7.46-.24-8.63-3.15Zm0-35.43v-8.45a.7.7,0,0,0,.35-.06,21,21,0,0,1,6,.59.79.79,0,0,1,.12.4c.06,1.52,0,2.45-.58,3.27a13.66,13.66,0,0,0-5.89,4.25Zm0-16.61V482a13.48,13.48,0,0,0,3.38-1.81,7.17,7.17,0,0,1,6,3.67c-.17.29-.35.53-.52.82-2.16,1.34-4.31,2.68-6.47,4.08-.76.29-1.57.58-2.39.81Zm56.23-43.58c3.32,0,17.89,4.78,19,6.41,1.28,1.92.52,6.52,1.57,8.39,1.52.46,7.29,1,10.08.17,1.58-.93,3.15-1.8,4.66-2.74,3-.64,9.62,1.69,9,4.08-2.1,3.38-5.36,2-9.91,3.15-3.26.82-16.37,7.46-18.64,6.41a2,2,0,0,1,.17-.41,18.47,18.47,0,0,0,6.41-3.67l-.17-1.4c-.35-.64-.35-.64-1-.93-5.24-1.34-10.31,4.2-14,5.83a27.91,27.91,0,0,1-11.25,2.33c1.58-3.73,14.63-6.65,13-14.8-1.05-5.36-7-7.93-9.33-12.41a2.65,2.65,0,0,1,.41-.41Zm21.74,34.61c8.16-.35,17.94,7.69,9.5,11.65-2-.4-4.08-2.27-6.41-1.74-1.69.35-2.33,1.45-4.84,1.51v-.35a.76.76,0,0,0-.18-.23c.59-2.16,2.63-3.38,3.68-5.25-.47-3.14-4.26-3.78-6.82-2.09-3.5,2.27-4.55,7.22-8.33,9.49-3.21,1.93-8.1,1.17-12.07,2.51l-10.66,5.24a2.28,2.28,0,0,1-1.17-1.16c1-5.54,7.35-7.52,11.08-10.49,2.39-2.51,4.77-5,7.16-7.57h.24v.81c-.47,1-1.4,2.51-1,3.67.29.64.29.64,1,1,3.49.93,16.37-5.3,18.82-7Zm-8.74,21.91c4.08.87,9.61,5.83,7.57,12.59-1,3.38-5.36,4.83-7.4,7.4.53,3.32,4.55,6.46,6.82,8.33,7.75,6.18,13.69,13.28,22.9,18.41,3.44,1.87,8.74,2.57,11.07,5.6a5.14,5.14,0,0,1-.41.81c-4.43,0-7.22-1.05-11-1.4-3.09-.29-5.65.88-8.16,1.4-7.92,1.46-14.92-6.76-17.71-10.72-3.91-5.48-.06-17.71-9.33-17.77-3.32,1.69-5.3,6.06-7.57,8.85-4.31,5.37-11.07,8.92-17.83,11.83-2.86,1.23-7.63,4.43-10.9,2.92l.59-.76c6.75-3,17-8.74,21.15-14.16,2.39-3,3.61-6.7,5.65-10.08,1.57-2.62,4.89-4,5.07-7.75-2.16-4.25-8.33-11.36-12-14.1a5.32,5.32,0,0,1,.52-.82h.17c8.34.35,8.86,10.55,14.4,11.6C921.87,511.84,923.44,507.18,924.9,502.46ZM855.67,482v7.57c-2.39.82-4.83,1.64-7.28,2.45-2.68,1.11-5.65,2.56-8.8,3.85v-5.77a4.19,4.19,0,0,0,.82-.41c2.21-.76,4.25-1.51,6.41-2.33,1.57-1.17,3.14-2.33,4.66-3.5,1.45-.75,2.85-1.28,4.19-1.86Zm0,15.73v8.45c-1.75,2-3.2,4.37-5.36,6.18s-5.88,3.55-7.17,6.06v.17l4.43-.17c.24-.53.41-1,.59-1.58a40.68,40.68,0,0,1,7-.17c.11,1,.29,2,.41,3.09-2.74,4.13-10,6-15,7.16.06,6.3,8.68,27.1-1,29v-38.4c0-.06.06-.06.06-.11a.06.06,0,0,1-.06-.06V505.14a56.19,56.19,0,0,1,9.21-6.35c2.27-.35,4.54-.7,6.87-1.11Zm0,31.93a17.34,17.34,0,0,0-4.54-.58,10.06,10.06,0,0,0-1.58.41,2,2,0,0,0-.4.58c.35,2.51,2.56,2.8,3.67,4.43,1.51,2.16,2,4.89,2.85,7.11V529.61Zm-16.08-48.77v-3.49a2,2,0,0,0,.23-.53,4.41,4.41,0,0,0-.23-4.43V462a10.75,10.75,0,0,1,1.86.23c4.72,1.29,10.73,5,11.77,9.91C854.45,477.87,844.66,479.68,839.59,480.84Zm0-18.82v10.37c-2.68-4.48-11.83-7.51-13.69-11.3v-1.17c2.44.64,4.89,1.28,7.4,2,2,.41,4.19,0,6.29.12Zm0,15.33v3.49a12.67,12.67,0,0,1-1.28.29c-2.1.53-2.92,2.33-5.54,2.51.93-3,5.19-3.56,6.82-6.29Zm0,12.7v5.77a52.72,52.72,0,0,1-8.86,3c-3.78.81-14.56.81-14-3.09l7.63.35c5.71-1.11,10.37-3.85,15.21-6Zm0,15.09v12.18l-.52-.53c-2.34.12-4.49.3-6.12,1.34.11,7.52-1,15.1-7.4,15.56-4.61-2.62-3.5-19.11-2.16-24.82.7-.47,1.4-.87,2.16-1.34,1.74,1.05,3.61,2,5.42,3.09a34.23,34.23,0,0,0,8.62-5.48Zm0,12.35c-1.52,1.63-2.27,4.32-3.38,6.3.47,2.09,1.46,3.2,1.34,6.23-2.16,2.86-6.29,3.5-9.44,5.36-4.08,2.92-8.1,5.83-12.12,8.74-1.92.76-3.85,1.58-5.83,2.33-.93.82-1.8,1.69-2.68,2.51v.58a20.77,20.77,0,0,1,3.27,5.83c4.37,2.5,7.57-1.17,9.49-3.5,1.81-2,16.2-15.5,17.72-15.91-.23,2.28-.53,4.55-.82,6.82-1.57.88-3.9,1.17-5.24,2.33,1.51,4.08,3.49,8.63,7.05,10.84.23,0,.41-.06.64-.06v-38.4Zm-63.81,34.79V539.93c3.15-.41,5.83-1.46,8,1.28,5.47,7,.11,10.84-8,11.07Zm0-45.86V493.78a6,6,0,0,0,3.09-.82,9.33,9.33,0,0,0-3.09-9.44v-2.27c2.1,1.16,4.14,2.39,6.24,3.55,2.5,1,5,1.93,7.57,2.92-.11,2.5-11.94,17.3-13.81,18.64Zm0-25.17v2.27a5.57,5.57,0,0,0-1.92-.87c-2.62,2.5-1.34,9.15.76,11.07a8.26,8.26,0,0,0,1.16.06v12.64c-1.8,1.05-3.61,2-5.42,3-2.09,2.51-1.39,8.16-3.14,11a67.51,67.51,0,0,1-16.67,17.84c2.45-6.94,4.9-13.93,7.35-20.92,1-4-1.4-8.16-5.42-7.52-1.81.7-3.62,1.34-5.36,2.1a2.27,2.27,0,0,1-.3-.82c2.33-3.2,9.27-3.9,10.73-7.69,1.69-4.54-1.23-9.67-.41-14.74,1.86-12.12-.06-22.9,5.07-31.47,3,.93,9.73,10.37,10.66,13.58,1.22,4.14-1,6.35,1.34,9.5.53.35,1,.64,1.57.93Zm0,58.68v12.35a8.41,8.41,0,0,1-1.74,0c-2.22,4.37-5.42,10.49-9.15,13.4-1.11.88-4.08,2.86-5.83,1.17l.41-.41c1.34-3.15,8.56-11,6.82-14.92a5.83,5.83,0,0,0-1.75-2c-5.13.18-9,1.75-12.65-.76a4.8,4.8,0,0,1,.41-.58,2.9,2.9,0,0,0,.35-.17c3.15,1.05,11.48-1.46,13.05-3.5.88-1.86,1.81-3.67,2.68-5.48,1.29.29,2.63.53,3.91.82a12.07,12.07,0,0,0,3.49.06Zm-79,30.24V558.69c2.27-2.33,4.25-4.54,5.59-5.65,5.77-4.55,12.76-9.62,15.74-16.9,1-2.56.11-5.94.75-9.44.53-3.09,1-6.24,1.58-9.32.06-8,.11-16,.17-24,.47-2.51,0-6.24.59-9.32,1-5.19,2.85-13.81,1.63-21s-4.32-12.65-8.8-16.55c-1.4-1.22-6.59-2.68-6.41-4.08,3.32,0,5.59.88,8.33,1.4,4.49.82,8.57-.58,11.48,1.34,5.48,3.55,10.84,14.57,8.33,24.47-1.34,5.42-4.54,9.33-6.58,14-2.62,6.06-3.67,13.58-4.84,20.57.06,7.05.18,14.22.23,21.32,1.17,3.91,2.28,7.75,3.44,11.6v4.08c1.23,5.36,3.85,11.25-2.74,14-3.08-.29-8.27-3.49-8.74-6.23.12-1.11.29-2.22.41-3.26-.17-.3-.41-.53-.58-.82a9.67,9.67,0,0,0-1.17.23c-2.09,1.17-3.09,5.25-4.48,7.17-4.26,6-10.49,11.19-13.93,17.89Zm0-25.81c1.22-1,2.39-2.1,3.26-2.74,5.66-4.37,18.07-12,10.9-21.33-2.33-3-8.33-4.95-14-3.9a.22.22,0,0,1-.17.05v9.91a3.24,3.24,0,0,1,1.69,1.34c1.69,2.68.23,7.28-1.69,11.25Zm0-27.92v9.91c-1.86-.82-4.43-.76-6.06-1.81l-10.31-8.91c.11-.35.29-.64.4-1,3.21.93,6.47,1.8,9.73,2.74,2.51.52,4.43-.53,6.24-.94Zm0,22.5v5.42c-1.52,1.16-3.15,2.15-4.72,1.92v-.23c1-.82,3-3.73,4.72-7.11Zm0,19.75v11.48h-.06c-1.8,3.5-2.62,8.62-6.41,10.08-7.69,3-20.45-13.46-10.66-18.06,1.46,1.16,3,2.33,4.49,3.49C688.09,566.73,692.87,562.59,696.77,558.69Z" transform="translate(-676.09 -432.77)"/><path d="M676.84,622.88h10a28,28,0,0,1,4.41.25,6.5,6.5,0,0,1,2.6,1,6.43,6.43,0,0,1,1.91,2.09,5.59,5.59,0,0,1,.76,2.91,5.89,5.89,0,0,1-3.5,5.4,6.6,6.6,0,0,1,3.5,2.26,6,6,0,0,1,1.22,3.76,7.35,7.35,0,0,1-.79,3.3,6.61,6.61,0,0,1-2.15,2.57,7.2,7.2,0,0,1-3.38,1.18c-.83.09-2.86.15-6.06.17h-8.48Zm5,4.15v5.76h3.29q2.94,0,3.66-.09a3.32,3.32,0,0,0,2-.89,2.64,2.64,0,0,0,.74-1.95A2.69,2.69,0,0,0,691,628a2.84,2.84,0,0,0-1.89-.88c-.5-.06-1.94-.08-4.3-.08Zm0,9.9v6.66h4.65a23.06,23.06,0,0,0,3.45-.15,3.17,3.17,0,0,0,1.83-1,3.09,3.09,0,0,0,.71-2.12,3.25,3.25,0,0,0-.55-1.9,3.1,3.1,0,0,0-1.57-1.14,17,17,0,0,0-4.46-.36Zm21,10.86V622.88h18.47v4.21H707.85v5.53h12.51v4.19H707.85v6.78h13.92v4.2Zm23.93,0V622.88h5v24.91Zm19.68-24.91h5v15.77a16.22,16.22,0,0,1-.54,4.76,6.76,6.76,0,0,1-2.65,3.49,8.78,8.78,0,0,1-5.06,1.31,7.51,7.51,0,0,1-5.68-2.06,8.49,8.49,0,0,1-2-6.06l4.74-.54a6.42,6.42,0,0,0,.63,3,2.7,2.7,0,0,0,2.48,1.35,2.75,2.75,0,0,0,2.38-1q.69-1,.69-4Zm11.09,24.91V622.88h5v24.91Zm10.74,0V622.88h4.89l10.2,16.63V622.88H788v24.91h-5l-10-16.24v16.24Zm37.54-9.16v-4.2h10.84v9.93a13.6,13.6,0,0,1-4.58,2.69,16.61,16.61,0,0,1-6.08,1.16,13.67,13.67,0,0,1-6.81-1.63,10.5,10.5,0,0,1-4.37-4.69,15.26,15.26,0,0,1-1.46-6.64,14.46,14.46,0,0,1,1.63-6.92,11,11,0,0,1,4.78-4.63,12.83,12.83,0,0,1,6-1.24A11.9,11.9,0,0,1,813,624.4a8.8,8.8,0,0,1,3.36,5.38l-5,.93a5.23,5.23,0,0,0-2-2.89,6,6,0,0,0-3.63-1.07,6.82,6.82,0,0,0-5.24,2.09c-1.3,1.4-2,3.46-2,6.21q0,4.43,2,6.65a6.56,6.56,0,0,0,5.16,2.22,8.76,8.76,0,0,0,3.17-.62,11.07,11.07,0,0,0,2.73-1.51v-3.16Zm38-15.75h5v15.77a16.22,16.22,0,0,1-.54,4.76,6.76,6.76,0,0,1-2.65,3.49,8.79,8.79,0,0,1-5.07,1.31,7.49,7.49,0,0,1-5.67-2.06q-2-2.07-2-6.06l4.74-.54a6.68,6.68,0,0,0,.63,3,3.16,3.16,0,0,0,4.86.39c.47-.64.7-2,.7-4Zm11.08,24.91V622.88h5v24.91Zm33.16,0h-5.47l-2.18-5.66h-10l-2,5.66H863l9.7-24.91H878Zm-9.26-9.86-3.44-9.24L872,637.93Zm11.78-2.44a15.82,15.82,0,0,1,1.13-6.39,11.82,11.82,0,0,1,2.32-3.42,9.77,9.77,0,0,1,3.22-2.24,13.68,13.68,0,0,1,5.37-1,11.68,11.68,0,0,1,8.81,3.41q3.32,3.42,3.31,9.5t-3.28,9.44a11.61,11.61,0,0,1-8.77,3.4,11.74,11.74,0,0,1-8.83-3.38Q890.53,641.44,890.53,635.49Zm5.18-.17q0,4.23,1.95,6.41a6.71,6.71,0,0,0,9.9,0c1.29-1.45,1.93-3.61,1.93-6.5s-.63-5-1.88-6.39a6.94,6.94,0,0,0-10,0Q895.71,631,895.71,635.32Zm29.38,12.47v-20.7H917.7v-4.21h19.8v4.21h-7.38v20.7ZM940,635.49a15.81,15.81,0,0,1,1.14-6.39,11.82,11.82,0,0,1,2.32-3.42,9.67,9.67,0,0,1,3.22-2.24,13.61,13.61,0,0,1,5.37-1,11.68,11.68,0,0,1,8.81,3.41q3.3,3.42,3.3,9.5t-3.27,9.44a11.61,11.61,0,0,1-8.77,3.4,11.76,11.76,0,0,1-8.84-3.38Q940,641.44,940,635.49Zm5.19-.17q0,4.23,2,6.41a6.71,6.71,0,0,0,9.9,0c1.28-1.45,1.93-3.61,1.93-6.5s-.63-5-1.88-6.39a6.94,6.94,0,0,0-10,0Q945.15,631,945.15,635.32ZM969,647.79V622.88h4.89l10.2,16.63V622.88h4.67v24.91h-5l-10.05-16.24v16.24Zm37.54-9.16v-4.2h10.84v9.93a13.5,13.5,0,0,1-4.58,2.69,16.56,16.56,0,0,1-6.07,1.16,13.68,13.68,0,0,1-6.82-1.63,10.48,10.48,0,0,1-4.36-4.69,15.12,15.12,0,0,1-1.46-6.64,14.35,14.35,0,0,1,1.63-6.92,11,11,0,0,1,4.77-4.63,12.88,12.88,0,0,1,6-1.24,11.86,11.86,0,0,1,7.24,1.94,8.8,8.8,0,0,1,3.36,5.38l-5,.93a5.23,5.23,0,0,0-2-2.89,5.93,5.93,0,0,0-3.62-1.07,6.85,6.85,0,0,0-5.25,2.09c-1.29,1.4-1.94,3.46-1.94,6.21q0,4.43,2,6.65a6.56,6.56,0,0,0,5.16,2.22,8.72,8.72,0,0,0,3.17-.62,11.07,11.07,0,0,0,2.73-1.51v-3.16Zm29-15.75h5v13.49a27,27,0,0,0,.19,4.16,4,4,0,0,0,1.53,2.46,5.36,5.36,0,0,0,3.33.93,5.07,5.07,0,0,0,3.22-.88,3.4,3.4,0,0,0,1.31-2.15,27.69,27.69,0,0,0,.22-4.23V622.88h5V636a34,34,0,0,1-.4,6.34,7.1,7.1,0,0,1-1.51,3.13,7.57,7.57,0,0,1-2.93,2,12.83,12.83,0,0,1-4.79.75,13.79,13.79,0,0,1-5.41-.82,7.79,7.79,0,0,1-2.92-2.14,7,7,0,0,1-1.41-2.76,30.24,30.24,0,0,1-.49-6.32Zm26.09,24.91V622.88h4.89l10.2,16.63V622.88h4.67v24.91h-5l-10-16.24v16.24Zm25.79,0V622.88h5v24.91Zm17.05,0-8.9-24.91h5.45l6.31,18.44,6.1-18.44h5.33l-8.92,24.91Zm17.73,0V622.88h18.47v4.21h-13.44v5.53h12.5v4.19h-12.5v6.78h13.91v4.2Zm24.09,0V622.88h10.59a18,18,0,0,1,5.8.67,5.69,5.69,0,0,1,2.9,2.39,7.11,7.11,0,0,1,1.09,3.92,6.63,6.63,0,0,1-1.65,4.63,7.92,7.92,0,0,1-4.93,2.31,11.62,11.62,0,0,1,2.7,2.09,28.82,28.82,0,0,1,2.86,4l3,4.86h-6l-3.64-5.42a35,35,0,0,0-2.65-3.66,3.88,3.88,0,0,0-1.51-1,8.27,8.27,0,0,0-2.54-.28h-1v10.4Zm5-14.38H1155a19.49,19.49,0,0,0,4.51-.3,2.71,2.71,0,0,0,1.42-1.05,3.27,3.27,0,0,0,.51-1.87,3,3,0,0,0-.68-2,3,3,0,0,0-1.89-1c-.41-.06-1.63-.09-3.67-.09h-3.93Zm19.69,6.27,4.89-.47a6,6,0,0,0,1.79,3.62,5.43,5.43,0,0,0,3.65,1.15,5.63,5.63,0,0,0,3.66-1,3.07,3.07,0,0,0,1.23-2.41,2.23,2.23,0,0,0-.52-1.5,4,4,0,0,0-1.81-1.08c-.59-.21-1.93-.57-4-1.09a13.77,13.77,0,0,1-5.67-2.46,6.57,6.57,0,0,1-1.22-8.58,6.81,6.81,0,0,1,3.11-2.52,12.47,12.47,0,0,1,4.91-.86c3.12,0,5.48.68,7.06,2a7.26,7.26,0,0,1,2.49,5.49l-5,.22a4.28,4.28,0,0,0-1.39-2.76,5.07,5.07,0,0,0-3.18-.84,5.76,5.76,0,0,0-3.44.9,1.81,1.81,0,0,0-.8,1.54,1.93,1.93,0,0,0,.75,1.52,13.45,13.45,0,0,0,4.62,1.66,24.22,24.22,0,0,1,5.43,1.8,7,7,0,0,1,2.76,2.53,7.84,7.84,0,0,1-.2,8,7.05,7.05,0,0,1-3.36,2.78,14,14,0,0,1-5.42.91q-4.73,0-7.26-2.18A9.47,9.47,0,0,1,1170.93,639.68Zm25.2,8.11V622.88h5v24.91Zm16.3,0v-20.7H1205v-4.21h19.79v4.21h-7.37v20.7Zm23.06,0V637.31l-9.13-14.43h5.9l5.86,9.86,5.75-9.86h5.79l-9.16,14.46v10.45Z" transform="translate(-676.09 -432.77)"/></g></svg>