<svg id="图层_1" data-name="图层 1" xmlns="http://www.w3.org/2000/svg" viewBox="0 0 226.77165 226.77165"><defs><style>.cls-1{fill:#1a5aa9;}</style></defs><g id="纵向"><path class="cls-1" d="M1050.12484,481.22225v-9.67682a107.46,107.46,0,0,0,0-125.48185v-9.67682a113.39554,113.39554,0,0,1,0,144.83549Zm0-144.83549v9.67682q-2.87281-3.996-6.09122-7.704v-8.72642q3.17521,3.26161,6.09122,6.75362Zm0,135.15867v9.67682q-2.916,3.4992-6.09122,6.75361V479.235q3.21842-3.6936,6.09122-7.68961Zm-6.09122-141.91229v8.72642c-.9504-1.0944-1.9152-2.16-2.9088-3.2112v-8.40962c.9936.9504,1.9584,1.9152,2.9088,2.8944Zm0,149.6019v8.74082c-.9504.9792-1.9152,1.944-2.9088,2.89441v-8.40962c.9936-1.0512,1.9584-2.1312,2.9088-3.22561Zm-2.9088-152.4963v8.40962c-.4032-.432-.8064-.84961-1.224-1.26721v-8.28c.4032.3888.8208.7632,1.224,1.1376Zm0,155.72191v8.40962c-.4032.3744-.8208.7488-1.224,1.1376v-8.28c.4176-.4176.8208-.8352,1.224-1.2672Zm-1.224-156.85951v8.28c-1.32481-1.368-2.67841-2.6784-4.06081-3.97441v-7.89121q2.0736,1.7496,4.06081,3.58561Zm0,158.12671v8.28q-1.98722,1.836-4.06081,3.58561v-7.89122q2.0736-1.944,4.06081-3.97441ZM1035.84,322.01553v7.89121c-.7344-.6624-1.45441-1.3248-2.20321-1.9728v-7.71841c.7488.5904,1.46881,1.1952,2.20321,1.8Zm0,165.68673v7.89122c-.7344.6048-1.45441,1.2096-2.20321,1.8v-7.71842c.7488-.648,1.46881-1.3104,2.20321-1.9728Zm-2.20321-167.48673v7.71841a105.66212,105.66212,0,0,0-8.58241-6.78241v-7.17122c2.9664,1.944,5.832,4.032,8.58241,6.23522Zm0,169.45953v7.71842c-2.7504,2.2032-5.616,4.29121-8.58241,6.23521v-7.17121a105.66224,105.66224,0,0,0,8.58241-6.78242Zm-8.58241-175.69475v7.17122c-2.49121-1.78561-5.08321-3.456-7.74722-5.01121V309.3147c2.64961,1.45441,5.24161,3.024,7.74722,4.66561Zm0,182.47717v7.17121c-2.50561,1.64161-5.09761,3.21121-7.74722,4.65121v-6.81121c2.664-1.55521,5.256-3.22561,7.74722-5.01121Zm-7.74722-187.14278v6.82562c-1.2816-.7632-2.592-1.49761-3.91681-2.20321V307.2699c1.32481.6624,2.63521,1.3392,3.91681,2.0448Zm0,192.154v6.81121c-1.2816.72-2.592,1.3968-3.91681,2.05921v-6.66722c1.32481-.7056,2.63521-1.44,3.91681-2.2032Zm-3.91681-194.19879v6.66721a106.837,106.837,0,0,0-22.06084-8.784v-6.13442a112.96289,112.96289,0,0,1,22.06084,8.25122Zm0,196.402v6.66722a112.96286,112.96286,0,0,1-22.06084,8.25121v-6.13441a106.8365,106.8365,0,0,0,22.06084-8.784ZM991.32952,299.01868v6.13442c-2.26081-.61921-4.536-1.16641-6.84-1.64161v-6.01921c2.304.432,4.57921.9504,6.84,1.5264Zm0,213.43723v6.13441c-2.26081.576-4.536,1.0944-6.84,1.52641v-6.01922c2.304-.4752,4.57921-1.0224,6.84-1.6416Zm-6.84-214.96363v6.01921a2.54279,2.54279,0,0,1-.288-.0576v-6.01921a1.69872,1.69872,0,0,1,.288.0576Zm0,216.60523v6.01922a1.69872,1.69872,0,0,1-.288.0576v-6.03362C984.3023,514.12631,984.4031,514.11191,984.4895,514.09751Zm-.288-216.66283v6.01921c-1.4976-.3024-3.024-.5616-4.5504-.8064v-5.99041c1.5264.2304,3.0528.4896,4.5504.7776Zm0,216.706v6.03362c-1.4976.288-3.024.5472-4.5504.7776v-5.99042c1.5264-.2448,3.0528-.504,4.5504-.8208Zm-4.5504-217.48363v5.99041q-2.39762-.3672-4.83841-.648v-5.96161c1.6272.1728,3.24.3744,4.83841.6192Zm0,218.30443v5.99042c-1.59841.2448-3.21121.4464-4.83841.6192v-5.96161q2.4408-.2808,4.83841-.648Zm-4.83841-218.92363v5.96161c-2.57761-.288-5.184-.4752-7.81922-.576v-5.91841c2.6208.0864,5.24161.2736,7.81922.5328Zm0,219.57164v5.96161c-2.57761.2592-5.19842.4464-7.81922.5328v-5.91841c2.6352-.1008,5.24161-.3024,7.81922-.576Zm-7.81922-220.10444v5.91841c-1.368-.0432-2.736-.0864-4.11841-.0864q-1.944,0-3.888.0864v-5.93281c1.296-.0432,2.592-.072,3.888-.072,1.3824,0,2.75041.0288,4.11841.0864Zm0,220.68044v5.91841c-1.368.0576-2.736.0864-4.11841.0864-1.296,0-2.592-.0288-3.888-.072v-5.93281q1.944.0864,3.888.0864c1.3824,0,2.75041-.0432,4.11841-.0864Zm-8.00642-220.69484v5.93281c-2.1024.072-4.1904.2016-6.264.4032v-5.94721q3.11041-.2808,6.264-.3888Zm0,220.69484v5.93281q-3.1536-.108-6.264-.3888v-5.94721c2.07361.2016,4.16161.3312,6.264.4032Zm-6.264-220.306v5.94721c-2.1168.1872-4.20481.4464-6.27841.7632v-5.976c2.0736-.3024,4.16161-.5472,6.27841-.7344Zm0,219.90284v5.94721c-2.1168-.1872-4.20481-.432-6.27841-.7344v-5.976c2.0736.31681,4.16161.576,6.27841.76321Zm-6.27841-219.16844v5.976c-2.13121.3312-4.248.72-6.336,1.1808v-6.06241c2.088-.432,4.2048-.792,6.336-1.0944Zm0,218.40523v5.976c-2.13121-.3024-4.248-.6624-6.336-1.09441v-6.06241c2.088.4608,4.2048.8496,6.336,1.1808Zm-6.336-217.31083v6.06241a103.68225,103.68225,0,0,0-12.672,3.55681v-6.24961a113.05471,113.05471,0,0,1,12.672-3.36961Zm0,216.13v6.06241a113.05683,113.05683,0,0,1-12.672-3.3696v-6.24961a106.321,106.321,0,0,0,12.672,3.5568Zm-12.672-212.76042v6.24961a106.40731,106.40731,0,0,0-12.168,5.112V305.8731a112.35353,112.35353,0,0,1,12.168-4.79521Zm0,209.20362v6.24961a112.35558,112.35558,0,0,1-12.168-4.79521V505.1695a106.4091,106.4091,0,0,0,12.168,5.112Zm-12.168-204.40841v6.56641c-.2736.144-.5472.2736-.82081.4176V306.2619l.82081-.3888Zm0,199.2964v6.56641l-.82081-.3888v-6.59522c.27361.144.54721.2736.82081.41761Zm-.82081-198.9076v6.59521c-2.232,1.1232-4.4208,2.33281-6.56641,3.6V309.6315q3.21842-1.7928,6.56641-3.3696Zm0,198.49v6.59522q-3.348-1.5768-6.56641-3.36961v-6.82561c2.14561,1.2672,4.33441,2.4768,6.56641,3.6ZM907.88135,309.6315v6.82562c-.6048.3744-1.224.7488-1.8288,1.1232v-6.912c.6048-.3456,1.224-.69121,1.8288-1.03681Zm0,191.52039v6.82561c-.6048-.3456-1.224-.6912-1.8288-1.0368v-6.912C906.65735,500.40309,907.27655,500.77749,907.88135,501.15189Zm-1.8288-190.48358v6.912a108.95858,108.95858,0,0,0-13.78083,10.20962v-7.704a113.492,113.492,0,0,1,13.78083-9.41762Zm0,189.36037v6.912a113.4931,113.4931,0,0,1-13.78083-9.41762v-7.704a110.3701,110.3701,0,0,0,13.78083,10.20962ZM892.27172,320.08593v7.704c-1.8144,1.584-3.58561,3.22561-5.28481,4.92481v-8.15042q2.5704-2.3112,5.28481-4.4784Zm0,169.73313v7.704q-2.7216-2.16-5.28481-4.47841v-8.15042c1.6992,1.69921,3.47041,3.34081,5.28481,4.92481Zm-5.28481-165.25473v8.15042l-.432.432v-8.208c.144-.1296.288-.2448.432-.3744Zm0,160.32992v8.15042c-.144-.1296-.288-.2448-.432-.3744v-8.208l.432.432Zm-.432-159.95552v8.208c-.3168.3312-.648.6624-.9648,1.008v-8.29441c.3168-.3024.648-.6192.9648-.92161Zm0,159.52352v8.208c-.3168-.3024-.648-.6192-.9648-.9216v-8.29442c.3168.3456.648.6768.9648,1.008Zm-.9648-158.60191v8.29441a.68264.68264,0,0,0-.144.144v-8.30881a1.29831,1.29831,0,0,1,.144-.1296Zm0,157.59391v8.29442a1.29831,1.29831,0,0,1-.144-.1296v-8.30882a.68264.68264,0,0,0,.144.144Zm-.144-157.46431v8.30881a.82519.82519,0,0,0-.1584.1584v-8.32321a1.57662,1.57662,0,0,1,.1584-.144Zm0,157.32031v8.30882a1.57662,1.57662,0,0,1-.1584-.144v-8.32322a1.64275,1.64275,0,0,0,.1584.1584Zm-.1584-157.17631v8.32321c-.4032.4176-.80641.84961-1.19521,1.28161v-8.46722c.3888-.3744.792-.7632,1.19521-1.1376Zm0,157.01791v8.32322c-.4032-.3744-.80641-.7632-1.19521-1.1376v-8.46722c.3888.432.792.864,1.19521,1.2816ZM884.0925,327.27154v8.46722c-1.0944,1.1664-2.1456,2.3472-3.1824,3.5712v-8.856c1.0368-1.08,2.1024-2.14561,3.1824-3.18241Zm0,154.59871v8.46722c-1.08-1.03681-2.1456-2.10241-3.1824-3.18241v-8.856c1.0368,1.224,2.088,2.40481,3.1824,3.57121ZM880.9101,330.454v8.856c-.8208.96481-1.62721,1.944-2.40481,2.93761v-9.18722c.792-.8784,1.59841-1.7568,2.40481-2.6064Zm0,147.84509v8.856c-.8064-.864-1.61281-1.728-2.40481-2.60641v-9.18721c.7776.9936,1.584,1.9728,2.40481,2.9376Zm-2.40481-145.23869v9.18722q-2.7216,3.4344-5.15521,7.09921V339.20916c1.656-2.1024,3.36961-4.16161,5.15521-6.14881Zm0,142.30109v9.18721q-2.6784-2.9808-5.15521-6.16321V468.26222q2.44082,3.672,5.15521,7.09922Zm-5.15521-136.15228v10.13762q-.756,1.14481-1.512,2.33281V341.19637l1.512-1.98721Zm0,129.05306v10.12322c-.504-.648-1.008-1.3104-1.512-1.9728V465.92942c.504.7776,1.008,1.5696,1.512,2.3328Zm-1.512-127.06585v10.48322c-1.5408,2.4768-3.00961,5.01121-4.36321,7.60321V347.48918q2.0952-3.2184,4.36321-6.29281Zm0,124.73305v10.48322q-2.268-3.06721-4.36321-6.29281V458.3262C868.82847,460.91821,870.29728,463.45261,871.83808,465.92942Zm-4.36321-118.44024a113.50867,113.50867,0,0,0,0,122.63065V458.3262a107.64768,107.64768,0,0,1,0-99.0434V347.48918Z" transform="translate(-849.48923 -295.41868)"/><path class="cls-1" d="M875.63759,418.46937l.52539,3.48633a7.915,7.915,0,0,1,.12012,1.56055,2.02233,2.02233,0,0,1-.33008.98047,2.798,2.798,0,0,1-.84473.81152,3.2159,3.2159,0,0,1-1.28516.46777,3.27051,3.27051,0,0,1-1.50976-.11035,2.32816,2.32816,0,0,1-1.13086-.74512,2.37622,2.37622,0,0,1-.84277,1.38086,3.341,3.341,0,0,1-1.64356.68555,4.25786,4.25786,0,0,1-1.54394-.05078,2.98866,2.98866,0,0,1-1.28028-.5791,2.18692,2.18692,0,0,1-.71484-1.09961q-.12891-.43066-.39746-2.11231l-.44727-2.96777Zm-6.124,2.72461-3.02832.45606.2461,1.62988a6.21086,6.21086,0,0,0,.25195,1.19726,1.06691,1.06691,0,0,0,.54785.57129,1.69509,1.69509,0,0,0,.999.10157,1.8343,1.8343,0,0,0,.83691-.32032,1.15837,1.15837,0,0,0,.43457-.6289,4.6952,4.6952,0,0,0-.07324-1.58594Zm4.50391-.67969-2.61816.39551.17382,1.15332a12.16007,12.16007,0,0,0,.23145,1.27344,1.07632,1.07632,0,0,0,.5127.64941,1.42994,1.42994,0,0,0,.92382.126,1.507,1.507,0,0,0,.81934-.35254.94748.94748,0,0,0,.29785-.72265q0-.26808-.18848-1.51075ZM866.496,432.362l11.0332-3.07324,1.75488,6.29883-1.86621.5205-1.27734-4.584-2.44532.68164,1.1875,4.26465-1.85839.51758-1.18848-4.26465-3.00293.83594,1.32227,4.74609-1.85938.51855Zm3.11132,10.14453,10.73633-3.9873.62012,1.66894-10.73633,3.98828Zm13.77735,3.37793.73926,1.61328-6.5918,3.01953a9.50016,9.50016,0,0,1-2.06836.73536,3.13611,3.13611,0,0,1-1.85059-.18457,2.59159,2.59159,0,0,1-1.29687-1.377,2.35045,2.35045,0,0,1,.02539-2.22265,4.6638,4.6638,0,0,1,2.2373-1.80469l.92579,1.42187a3.83089,3.83089,0,0,0-1.17188.78125.934.934,0,0,0-.19531,1.05567.88727.88727,0,0,0,.75195.582,4.39745,4.39745,0,0,0,1.76856-.53906Zm-7.82715,9.92383,10.0332-5.52344.8584,1.55957-10.0332,5.52442ZM878.537,461.069l9.50977-6.38281.96484,1.43848-4.33887,7.25976,6.35059-4.26269.92187,1.374-9.50976,6.38281-.99512-1.4834,4.21973-7.11425-6.20117,4.16211Zm13.16211,10.56055,1.44971-1.27442L895.683,473.237l-3.42627,3.0127a5.246,5.246,0,0,1-3.82227-1.66114,3.97181,3.97181,0,0,1-1.02734-2.30957,4.52907,4.52907,0,0,1,.59863-2.585,8.75621,8.75621,0,0,1,1.94922-2.40234,8.2217,8.2217,0,0,1,2.76953-1.667,4.60687,4.60687,0,0,1,2.71778-.13868,3.702,3.702,0,0,1,1.82275,1.209,3.53572,3.53572,0,0,1,1.02246,2.51758,4.3302,4.3302,0,0,1-1.07227,2.52539L895.7245,470.693a2.537,2.537,0,0,0,.5376-1.40625,1.791,1.791,0,0,0-.48145-1.28614,2.16855,2.16855,0,0,0-1.94726-.75976,4.88573,4.88573,0,0,0-2.59619,1.36621,5.44285,5.44285,0,0,0-1.83594,2.54394,2.12723,2.12723,0,0,0,.44238,2.04688,2.45849,2.45849,0,0,0,.95508.65332,3.68174,3.68174,0,0,0,1.15625.26855l1.09131-.959Zm23.31445,10.668,1.479.98047-4.00635,6.042a9.499,9.499,0,0,1-1.36963,1.7168,3.13462,3.13462,0,0,1-1.66943.81933,2.59879,2.59879,0,0,1-1.82862-.48535,2.35383,2.35383,0,0,1-1.1499-1.90234,4.664,4.664,0,0,1,.94776-2.71289l1.53662.71875a3.82563,3.82563,0,0,0-.58252,1.28222.93272.93272,0,0,0,.39062,1,.88613.88613,0,0,0,.9458.09766,4.38325,4.38325,0,0,0,1.21827-1.39063ZM913.598,494.85707l5.61132-9.98438,1.55225.87207-5.61133,9.98438Zm12.5459,6.166-1.76563-.79687.36816-2.68848-3.21337-1.44922-1.7334,2.07227-1.72168-.77735,7.84131-9.02734,1.7163.77442Zm-1.125-5.47851.64062-4.374-2.8335,3.38379Zm6.84472,1.583a9.2325,9.2325,0,0,1,1.23145-2.69727,5.67085,5.67085,0,0,1,1.23828-1.26758,3.57,3.57,0,0,1,1.38818-.66015,3.88115,3.88115,0,0,1,1.95117.11328,3.697,3.697,0,0,1,2.53516,2.40136,8.71226,8.71226,0,0,1-2.49658,8.3418,3.88894,3.88894,0,0,1-5.97071-1.78613A7.04667,7.04667,0,0,1,931.86366,497.12758Zm1.77979.45312a5.199,5.199,0,0,0-.186,3.02344,2.03479,2.03479,0,0,0,3.35352,1.01562,5.31213,5.31213,0,0,0,1.51367-2.665,5.235,5.235,0,0,0,.209-3.00488,2.09547,2.09547,0,0,0-3.394-1.00781A5.258,5.258,0,0,0,933.64345,497.5807Zm11.52441,8.793,1.60693-9.37891-2.5791-.4414.32715-1.91016,6.90723,1.18359-.32715,1.91016-2.57324-.44141-1.60694,9.37891Zm8.5459-4.42871a9.23824,9.23824,0,0,1,.55469-2.91211,5.6883,5.6883,0,0,1,.90136-1.52637,3.584,3.584,0,0,1,1.1919-.9707,3.89109,3.89109,0,0,1,1.92187-.35352,3.6977,3.6977,0,0,1,3.0337,1.7295,8.71559,8.71559,0,0,1-.44239,8.69628,3.88835,3.88835,0,0,1-6.22412-.31543A7.04977,7.04977,0,0,1,953.71376,501.945Zm1.83643.01758a5.19529,5.19529,0,0,0,.53808,2.98047,2.03474,2.03474,0,0,0,3.499.18945,5.31533,5.31533,0,0,0,.83643-2.94922,5.23313,5.23313,0,0,0-.51123-2.96777,2.09533,2.09533,0,0,0-3.53613-.17188A5.258,5.258,0,0,0,955.55019,501.96254Zm11.52587,5.96289-.88281-11.41895,1.72754-.13379,4.188,7.34766-.58936-7.626,1.64942-.127.88281,11.41894-1.78174.1377-4.12012-7.17285.57569,7.44629Zm15.69678-6.2793-.39844-1.8877,3.75489-.793.94287,4.46386a5.24642,5.24642,0,0,1-3.32422,2.51465,3.96654,3.96654,0,0,1-2.51563-.23926,4.52354,4.52354,0,0,1-1.95849-1.79,8.74734,8.74734,0,0,1-1.13623-2.87792,8.23054,8.23054,0,0,1-.09229-3.23047,4.60574,4.60574,0,0,1,1.21338-2.43653,3.70321,3.70321,0,0,1,1.94824-.99414,3.53227,3.53227,0,0,1,2.69483.34473,4.33222,4.33222,0,0,1,1.67334,2.17383l-1.6416.78613a2.53776,2.53776,0,0,0-.96094-1.1582,1.79309,1.79309,0,0,0-1.35742-.21289,2.17025,2.17025,0,0,0-1.61719,1.32421,4.88561,4.88561,0,0,0-.085,2.93262,5.44249,5.44249,0,0,0,1.31494,2.84766,2.127,2.127,0,0,0,2,.62012,2.46179,2.46179,0,0,0,1.03857-.51075,3.70615,3.70615,0,0,0,.80176-.876l-.30029-1.42188Zm18.11914-13.71777,1.57178-.83692,2.91553,5.47461a16.48237,16.48237,0,0,0,.958,1.65821,1.98993,1.98993,0,0,0,1.01124.74121,1.60132,1.60132,0,0,0,1.23779-.17676,1.511,1.511,0,0,0,.81982-.89258,1.71635,1.71635,0,0,0-.05566-1.08984,16.55334,16.55334,0,0,0-.84522-1.75391l-2.978-5.59277,1.57177-.83692,2.82764,5.30957a20.04063,20.04063,0,0,1,1.24219,2.64063,3.6892,3.6892,0,0,1,.20556,1.51855,2.80885,2.80885,0,0,1-.47705,1.31153,3.59425,3.59425,0,0,1-1.334,1.10449,3.88766,3.88766,0,0,1-1.86914.5664,2.91966,2.91966,0,0,1-1.37354-.38476,3.57035,3.57035,0,0,1-1.03711-.88574,17.886,17.886,0,0,1-1.52-2.4834Zm16.29151,3.91015-6.6128-9.35058,1.41455-1.001,7.3628,4.16113-4.416-6.24511,1.35059-.95508,6.61279,9.35156-1.4585,1.03125-7.21533-4.04492,4.3125,6.09765Zm9.10009-6.81054-7.40478-8.73731,1.3584-1.15137,7.40478,8.73829Zm6.01709-5.43555L1021.973,473.7223l1.36572-1.36523,7.57178,4.416-4.4668-7.52148,1.33594-1.335,5.86474,10.332Zm6.36328-6.78516-8.98144-7.10644,4.05762-5.12793,1.51953,1.20215-2.95264,3.73144,1.9917,1.5752,2.74609-3.47168,1.51368,1.19726-2.74707,3.47266,2.44433,1.93359,3.05664-3.86328,1.51367,1.19727Zm7.02442-9.35937-9.77442-5.96875,1.95313-3.19824a5.02923,5.02923,0,0,1,1.334-1.59278,2.25537,2.25537,0,0,1,1.47168-.30371,4.07854,4.07854,0,0,1,1.74121.61231,3.65093,3.65093,0,0,1,1.51172,1.60742,2.60875,2.60875,0,0,1-.00488,2.041,4.51358,4.51358,0,0,1,1.31738-.31347,13.66231,13.66231,0,0,1,2.11524.10449l2.46679.24609-1.10937,1.81739-2.79785-.20118a16.9398,16.9398,0,0,0-1.92578-.07617,1.41964,1.41964,0,0,0-.68653.209,2.29921,2.29921,0,0,0-.57617.69726l-.18847.30762,4.08105,2.49219Zm-4.71192-4.96387.68555-1.125a5.30013,5.30013,0,0,0,.71485-1.43848,1.033,1.033,0,0,0-.15332-.67871,1.83914,1.83914,0,0,0-.63965-.60156,1.648,1.648,0,0,0-.91993-.28418,1.041,1.041,0,0,0-.73339.33887,11.19275,11.19275,0,0,0-.71,1.08789l-.72461,1.18652Zm7.29-6.9043.51758-1.668a3.09664,3.09664,0,0,0,1.77735.11132,1.64857,1.64857,0,0,0,1.01757-.95507,1.681,1.681,0,0,0,.10645-1.376,1.58379,1.58379,0,0,0-.82617-.85449,1.25273,1.25273,0,0,0-.70508-.11914,1.4677,1.4677,0,0,0-.7168.37793q-.25781.227-1.04492,1.09179a4.41243,4.41243,0,0,1-1.86328,1.36035,3.41185,3.41185,0,0,1-2.43359-.21386,3.59029,3.59029,0,0,1-1.332-1.02539,2.646,2.646,0,0,1-.60156-1.48243,3.53732,3.53732,0,0,1,.35547-1.74414,3.17094,3.17094,0,0,1,1.89453-1.88476,3.82333,3.82333,0,0,1,2.66211.24121l-.64453,1.66308a2.198,2.198,0,0,0-1.35742-.07812,1.5055,1.5055,0,0,0-.81934.86621,1.70509,1.70509,0,0,0-.126,1.27832.92929.92929,0,0,0,.53027.55078.99328.99328,0,0,0,.74316.04688,4.08318,4.08318,0,0,0,1.373-1.17285,7.34258,7.34258,0,0,1,1.5459-1.40821,2.87064,2.87064,0,0,1,1.46289-.40625,4.22236,4.22236,0,0,1,1.80664.43457,4.1439,4.1439,0,0,1,1.50488,1.14649,2.81436,2.81436,0,0,1,.66992,1.6123,3.98283,3.98283,0,0,1-.41406,1.91992,3.26139,3.26139,0,0,1-1.97656,1.92383A4.96413,4.96413,0,0,1,1048.26649,451.57972Zm7.71-8.61718-10.78613-3.85059.59863-1.67773,10.78711,3.85156Zm2.38868-7.39453-9.18653-2.48243-.68261,2.52637-1.8711-.50586,1.82813-6.76562,1.87109.50586-.68164,2.5205,9.18652,2.48145Zm2.3789-10.80372-4.76562-.72753-7.04492,2.1914.31543-2.06348,4.793-1.36718-4.17285-2.69434.31055-2.02832,6.082,4.21,4.75.72559Z" transform="translate(-849.48923 -295.41868)"/><path class="cls-1" d="M1050.12484,363.70361c.6336-.0288,1.1376-.0432,1.2384-.0288,1.6992.072,2.6928.6912,3.62881-.072.0864-.0576.2736-.2448.72-.6624.0432-.0432.1152-.2304.072-.3024-.072-.072-1.62721-1.2816-1.68481-1.3536l-.3168-.4032a38.27514,38.27514,0,0,0-3.6576-1.88641v.3744a1.06006,1.06006,0,0,1,0,.89281v1.08c.2448-.792.36-1.68481.432-1.74241.4752-.3744,3.24,1.78561,3.24,1.8l.36.432c.0576.072.53281.36.59041.432.1008.1296,0,.3744-.0432.4176-.20161.1584-1.05121.0288-1.20961.0576-.7056.1296-2.016.3312-3.3696.4896v.4752Zm0-5.67361c.6192.3024,1.3392.5472,1.9584.8208.3312.144.648.4752,1.008.5472a1.202,1.202,0,0,0,1.1088-.2592c.73441-.5904.36-2.232.36-3.024-.072-.0144-.0576-.0288-.1296.0288a5.04975,5.04975,0,0,1-.432.936,9.40533,9.40533,0,0,1-3.8736.7056Zm0-.2448v.2448c-.1296-.072-.2448-.1296-.36-.2016a.1608.1608,0,0,1-.0144-.1152,1.146,1.146,0,0,0,.3744.072Zm0,1.2096a3.68193,3.68193,0,0,1-.83521-.4896c-.2592-.3168.0432-.792-.0432-.8928-.0576-.072-.144-.072-.2016-.144-.072-.072-.1008-.2448-.1584-.3168s-.1008-.0576-.1728-.0576c-.0144.1584-.0144.6336-.0432.864l-.7632.6192c-.1584.1296-1.8144.72-1.9872.504a.56493.56493,0,0,1-.1296-.5472c.6048-.9648,2.4624-3.97441,1.9152-4.65121-.0576-.072-.1008-.0576-.1728-.072a19.62758,19.62758,0,0,1-1.5552,2.82241c-.072.0576-.1728.0432-.2592.1008-.072.0576-.1008.288-.1728.3456l-.6624.5184a.5132.5132,0,0,0-.1584.7344c.0576.0864.5328.3024.6048.3744a.56334.56334,0,0,1-.1008.7056s-.5616.072-1.19521.1296v.51841a2.81327,2.81327,0,0,1,.95041.1152c.0864.0864.0864.4752.144.7488a1.87505,1.87505,0,0,0,.216.4176c.1008.2592-.4752,1.0944-.5904,1.1808a.63059.63059,0,0,1-.72-.0288v.3024a2.92587,2.92587,0,0,1,.432.2736c.0576.072.1584.3168.216.3888a1.49639,1.49639,0,0,0,1.1376.6192c.1728,0,.4608-.1152.5904.0432.5616.6768,1.4256,1.28161,1.9872,1.97281.0144.0144.5472.4896.2448.7344-.504.4032-2.7072-1.296-2.8224-1.3968a12.65987,12.65987,0,0,0-1.78561-1.05121v.3312a.85285.85285,0,0,1,.0864.0576l.3744.46081c.0576.072.47521.3456.53281.4176l.7488.936a5.27038,5.27038,0,0,0,2.9232,1.2672c.3456.0144.8208.1728,1.05121-.0144a.61641.61641,0,0,0,.072-.936c-.0576-.072-.1728-.1008-.24481-.1728l-.504-.648c-.1008-.1152-1.1088-.7632-1.1088-.7776l-.3024-.37441c-.0576-.072-.576-.4608-.6336-.5328a.22162.22162,0,0,1,.0144-.3168,10.97414,10.97414,0,0,1,3.08161-.3744v-.4752c-2.10241.2592-4.34881.4032-4.70881-.0432-.3168-.4032.1728-1.4256.3456-1.5696.648-.5184,3.0096,1.4688,3.7872.8352a2.34789,2.34789,0,0,0,.576-1.1088v-1.08a3.58716,3.58716,0,0,1-.74881,1.3104,2.15189,2.15189,0,0,1-1.0368.3312,9.42465,9.42465,0,0,1-2.16-.7488c-.1296-.1584-.3024-.8496-.0864-1.0224.5328-.432,2.5344.2448,2.9808-.11521.4176-.3312.216-.7632.432-.936.20161-.1584.576.2304.59041.2592a.031.031,0,0,1,.0288.0288v-.3744Zm-6.09122-3.4272v-.60481c.0144-.0144.0288-.0288.0288-.0432l.0864.1152C1044.13442,355.078,1044.09122,355.294,1044.03362,355.5676Zm0-.60481v.60481a6.78236,6.78236,0,0,1-.7056,2.3616c-.2592.216-.7632.432-.9504.1872a1.14835,1.14835,0,0,1,.0288-.9936l.4176-.3456a11.36412,11.36412,0,0,0,1.2096-1.81441Zm0,4.57921v.51841c-.6336-.02881-1.368-.04321-1.5264-.072l-.1008-.1296c.0144-.0576-.0288-.0864.0432-.144.0144-.0144.8352-.1008,1.584-.1728Zm0,2.952v.3024c-.6192-.3456-1.7136-.864-1.8-.936a2.44839,2.44839,0,0,0-1.1088-.4752v-.288c.1872.072.3744.1296.5184.2016a15.04639,15.04639,0,0,1,1.6992.72c.1584.072.4176.3168.6912.4752Zm0,1.8864v.3312c-.2592-.1584-1.0656-.5328-1.1088-.5904l-.1296-.1584c.0144-.0576-.0144-.0432.0576-.1008.1296-.1152.6624.288.7056.3168a3.62591,3.62591,0,0,1,.4752.2016Zm-2.9088,3.85921v-1.4688a1.84375,1.84375,0,0,0,1.2384.36,1.66927,1.66927,0,0,1,.6336.3312,5.122,5.122,0,0,1,.3168,1.08c.0288.1584.144.3024.1584.4464a.72443.72443,0,0,1-.1008.576c-.2736.2304-.8352-.4176-.9504-.4464-.36-.1008-.8064-.1584-.9504-.3312-.0576-.072-.2016-.3744-.2592-.4464-.0144-.0144-.0432-.0576-.0864-.1008Zm0-2.8368c.7056.216,1.512.4752,1.7136.3168a.226.226,0,0,0,.0288-.2304c-.0288-.0864-.1728-.216-.2016-.3312a4.91087,4.91087,0,0,0-.216-.48961c-.1728-.2016-.288-.0864-.7056-.3456-.1728-.0864-.3888-.288-.5328-.3744a.12446.12446,0,0,0-.0864-.0432v.4032c.1296.0864.216.144.2304.1584a.38033.38033,0,0,1-.1008.432.27135.27135,0,0,1-.1296.0576v.44641Zm0-6.27842v-.1872A.213.213,0,0,1,1041.12482,359.1244Zm0-.1872v.1872c-.0144.0144-.0288.0288-.0432.0288a3.95932,3.95932,0,0,1-1.1808.0144v-.2304c.4032,0,.8064-.0144,1.2096-.0288,0,.0144,0,.0144.0144.0288Zm0,2.16v.288c-.3888-.0864-.8208-.144-1.224-.2304v-.4176c.4464.1152.864.2448,1.224.36Zm0,2.808v.4032c-.3168-.1872-.864-.5184-1.224-.7632v-.576a4.02555,4.02555,0,0,0,.6768.5472c.1152.0864.2448.2592.36.3312a.54946.54946,0,0,0,.1872.0576Zm0,1.0512v.44641a5.19216,5.19216,0,0,0-.8928-.216.3215.3215,0,0,1-.0432-.20161,6.9835,6.9835,0,0,0,.936-.0288Zm0,1.81441v1.4688a4.521,4.521,0,0,0-.4608-.4464c-.1872-.1584-.6624-.2304-.72-.3024l-.0432-.0576v-.2016c.1728,0,.6192.2592.8208.1008.1296-.1152.0432-.2736-.0144-.36a3.62083,3.62083,0,0,0-.8064-.6768v-.5184a12.62541,12.62541,0,0,0,1.224.9936Zm-1.224-7.83362v.2304a10.75868,10.75868,0,0,1-1.224-.1296.1608.1608,0,0,1-.0144-.1152c.4176.0144.8208.0144,1.23841.0144Zm0,1.8c-1.55521-.432-3.32641-.82081-3.36961-.864-.0864-.1152,0-.3024.0864-.3744a7.61678,7.61678,0,0,1,1.512-.5472,2.44,2.44,0,0,0-2.0016.36s-.1584.1872-.288.3744v.59041l.1296.1584c.0576.072,1.3248.1008,1.9152.216.4176.0864,1.1808.2736,1.5696.3888a2.256,2.256,0,0,0,.44641.1152v-.4176Zm0,2.232v.576a2.30155,2.30155,0,0,1-.34561-.288,1.00594,1.00594,0,0,1-.0576-1.0224,1.34464,1.34464,0,0,0,.33121.648.38179.38179,0,0,1,.072.0864Zm0,2.808a.79137.79137,0,0,0-.1296-.1008,11.6773,11.6773,0,0,1-2.808-1.45441c-.5616-.3456-1.0368-.576-1.0656-.6192a.23209.23209,0,0,1-.0576-.1008v1.1952c.5904.2592,1.4832.576,2.2032.83521.4752.288.9936.4032,1.08.504a.44887.44887,0,0,1-.072.5472l-2.5776,2.0736c-.0432.0288-.3744.1872-.6336.3024v1.44c.3456-.2736.36-.288.36-.288a2.59022,2.59022,0,0,0,.288-.15841c.072-.0576.3168-.4464.3888-.504l.4752-.3744c.072-.072.9216-1.1376.9936-1.1952l.432-.3456c.072-.0576.792-1.1808.864-1.2384a.27383.27383,0,0,1,.25921,0v-.5184Zm0,1.4544v.2016l-.0576-.072.0144-.1152a.0529.0529,0,0,1,.0432-.0144ZM1035.84,359.686v.59041l-.1872-.23041a1.07479,1.07479,0,0,1,.1872-.36Zm0,3.816v1.1952a1.92812,1.92812,0,0,1-.5904-.3312c-.432-.5328-.0432-1.0224.216-1.7568.0576.0144.144-.0288.2016.0432a7.97787,7.97787,0,0,0,.1728.8496Zm0,5.45761v1.44c-.1296.1008-.3024.2304-.5328.4176-.5616.216-1.08.6048-1.52641.072a1.57391,1.57391,0,0,1-.144-.2736v-3.26881l.0864.0864c.072.072.2592.8496.3168.9216l.3888.504c.072.072.1296.3888.1872.4608a.484.484,0,0,0,.67681.0864c.072-.0576.1584-.216.2304-.2736a3.45359,3.45359,0,0,1,.3168-.1728Zm-2.20321-1.6128v3.26881a14.90531,14.90531,0,0,1-.4896-2.86561,12.20973,12.20973,0,0,1-.6624-2.96641l.1008-.0864c.0288.0288.0576,0,.1152.072a21.21678,21.21678,0,0,0,.6912,2.376,2.03316,2.03316,0,0,0,.2448.2016Z" transform="translate(-849.48923 -295.41868)"/><path class="cls-1" d="M1025.05439,336.68916v-1.008a4.57209,4.57209,0,0,1,.8928.0288c.2304.072.864.576.7632.8784-.1152.288-1.0224.1872-1.656.1008Zm0-3.312v-2.1888a4.692,4.692,0,0,0,.5472-.9504,2.94541,2.94541,0,0,0,.0144-.648c.072-.0432.1008-.0288.1728-.0576a2.85325,2.85325,0,0,1,.576,2.31841A5.9309,5.9309,0,0,1,1025.05439,333.37715Zm0-2.1888v2.1888a13.51154,13.51154,0,0,0-1.74241,1.8c-.0576.1728.1584.3888.2592.4176a5.54409,5.54409,0,0,0,1.48321.0864v1.008a4.36141,4.36141,0,0,0-.54721-.072,7.06143,7.06143,0,0,1-.7776.0576c-.2304-.0288-.6192-.1584-.9216-.1872a2.88021,2.88021,0,0,0-1.0224.072,24.44068,24.44068,0,0,0-3.03841,2.3616c-.1008.3024.5328.8064.6336.9792,1.38241,2.448,1.67041,3.65761,3.58561,4.33441.1008.0288.576.2016,1.368.3888.0288.0576.072.072.0432.1584-.0576.1728-.7056.216-.7776.216-2.16-.3024-2.232.41761-2.664.27361-.792-.288-1.2816-1.656-1.2528-2.47681,0-.1584-.34561-3.13921-1.32481-3.47041-.144-.0576-.6048.2304-1.0512.5328v-1.7856a4.56076,4.56076,0,0,0,1.728-1.5408c.144-.3888-.3744-.6336-.5184-.8064-.144-.1872.0288-.3456.0288-.504-.0288-.288-.3744-.31681-.5184-.56161a10.23141,10.23141,0,0,1-.5616-1.3104c.0576-.0432.0864-.0288.1872,0A10.61459,10.61459,0,0,0,1020,334.846l.6336.23041c.7632.2736,3.3408-2.24641,4.11841-3.44161.0864-.1296.2016-.288.3024-.4464Zm-7.74722,6.88321v1.7856a6.0984,6.0984,0,0,1-.936.576,22.53954,22.53954,0,0,1-2.98081.9216h0V340.174a35.91893,35.91893,0,0,0,3.91681-2.10241Zm-3.91681,2.10241v1.1808a34.64375,34.64375,0,0,1-5.02561.432l-.0576-.1296c1.0512-.2592,2.31841-.3744,3.528-.792.2304-.0864.8064-.3312,1.5552-.6912Z" transform="translate(-849.48923 -295.41868)"/><path class="cls-1" d="M991.32952,310.40911a1.41655,1.41655,0,0,0,.4464-.72c.0288-.2016-.2016-.4608-.4464-.6336Zm0-1.35361v1.35361c-.864.8352-2.664,1.6272-2.736,2.0304-.0432.36.864.864.8064,1.224-.0576.4032-1.296.4896-1.6128.5328a11.94388,11.94388,0,0,0-1.3248.4464l-.072-.1296c.4608-.3168,1.4544-.6192,1.5408-1.1808.0144-.1008-.072-.6768-.0432-.7776.072-.4896,1.872-1.5552,1.95841-2.0448a.36337.36337,0,0,0-.23041-.3312,16.533,16.533,0,0,0-3.5856,2.2896,2.97146,2.97146,0,0,1-1.54081.9072v-1.728c.0432-.0288.0864-.0432.1296-.072,1.52641-.864,3.528-1.3104,5.08322-2.00161.6192-.288.6768-.792,1.1664-.72a1.15716,1.15716,0,0,1,.4608.2016Zm-6.84,19.656v-1.9296a3.04738,3.04738,0,0,0,.44641.1296l.5904.0864c.0288,0,1.2816.4464,1.656.504a10.62736,10.62736,0,0,0,1.8576-.0576l.648.1008a.77175.77175,0,0,1,.072.1584c-1.41121.3168-3.96,1.5552-4.16161,1.5264a2.90081,2.90081,0,0,1-1.10881-.5184Zm0-5.184v-5.12641c.25921.0432.33121-.072.37441-.3312a.65077.65077,0,0,0-.1728-.6192,1.43849,1.43849,0,0,0-.20161.1152v-.6048a5.92885,5.92885,0,0,1,3.13921-1.584c.2592-.0144.6768-.1728.7776-.1584l.432.072c.3312.0432.5616.7344.5616.8208-.0288.1008-.3744.5184-.3888.6192l-.0864.6048c-.0288.1728-.8496,1.8-.864,1.8432l-.0864.5616c-.0144.1008-.3024.48961-.36.73441-.1728.7488-.3744,1.7424-.432,2.0304-.1584.6336-.2448.8208-.2592.9216s.0144.432,0,.5328c-.0576.4032-.3024.7776-.7488.7056-.5328-.072-.648-.6624-1.0944-1.2528l.0144-.1296c.0576-.0432.0432-.0432.144-.0288s.4464.3168.5472.3312c.4752.072,1.0368-1.7424,1.1376-2.3184.216-1.1952.2592-1.74241.2736-1.84321.0288-.1728,1.008-2.4912,1.08-2.9664a.46169.46169,0,0,0-.36-.5328c-.2592-.0288-2.3184.5328-2.4048,1.08-.0144.1008.0576.7632.0288.864-.0144.1008-.1584.3024-.1728.4032-.1296.8064,1.0944.8496.9648,1.7136-.072.44641-1.224.96481-1.4256,1.512l-.37441,1.9584A.13158.13158,0,0,1,984.4895,323.52753Zm0-11.88v1.728a1.77269,1.77269,0,0,1-.288.0288v-1.5984a1.84471,1.84471,0,0,0,.288-.1584Zm0,5.31361v.6048a2.78769,2.78769,0,0,0-.288.3024v-.648c.1008-.0864.2016-.1728.288-.2592Zm0,1.44v5.12641a.87858.87858,0,0,1-.288.2736v-2.9376c.1728-.0288.2736-.288.288-.3744.0144-.0576,0-.3168-.1872-.3456h-.1008v-1.85761a.60012.60012,0,0,0,.2592.1152Zm0,8.38082v1.9296c-.0864-.072-.1872-.144-.288-.216v-1.8576c.1008.0576.2016.1008.288.144Zm-.288-14.976v1.5984a3.02153,3.02153,0,0,1-.6192-.0288c-.1008-.0144-.9504-.2304-1.0512-.2448s-.432-.0288-.6912-.072c.7488-.3888,1.4544-.7344,2.3616-1.2528Zm0,5.41441v.648a.7695.7695,0,0,0-.0864.2016.24718.24718,0,0,0,.0864.216v1.85761a.43425.43425,0,0,0-.2736.3024c-.0144.0432,0,.3888.216.4176h.0576v2.9376a.37935.37935,0,0,1-.216.0864l-.4464-.072c-.0288-.0576-.0864-.072-.072-.1728.0144-.0144.5328-1.5696.576-1.8288.1008-.7056-.9936-1.08-.936-1.3968.0288-.1872.8496-.77761.9648-1.45441.0288-.1872.0288-.5328-.2736-.576-.1584-.0288-.1584.1008-.3312.3024a2.87487,2.87487,0,0,0-.6048.72,5.70031,5.70031,0,0,0-.3456,1.31041l-.2016,1.3536c-.0288.1728-.3888.432-.432.4176-.5904-.0864-.5904-2.088-.5904-2.088.1152-.72,1.872-3.32641,1.6416-3.456l.144.0144a.25576.25576,0,0,1,.1008.2592c-.0144.1008-.1872.4464-.2016.5472-.0288.1296-.0432.4032.2016.432a.2225.2225,0,0,0,.2304-.1152,10.3348,10.3348,0,0,1,.792-.864Zm0,9.41762v1.8576a16.367,16.367,0,0,1-2.1744-2.0304,9.16717,9.16717,0,0,0-2.376-1.8v-.72c.7344.36,1.3968.6624,1.6992.792.648.2592,1.8432,1.38241,2.8512,1.90081Zm-4.5504-3.26881v-1.8144a3.23361,3.23361,0,0,1,.6192,1.5264.43666.43666,0,0,1-.4896.3168.73044.73044,0,0,1-.1296-.0288Zm0-2.9232v-2.07361a4.70961,4.70961,0,0,1,.4176,1.0656,3.05987,3.05987,0,0,1,.0288.70561C980.0687,320.40273,979.8239,320.44593,979.6511,320.44593Zm0-2.07361v2.07361a.38889.38889,0,0,1-.12961,0,1.0616,1.0616,0,0,1-.936-.82081,9.16834,9.16834,0,0,1-.0864-1.7856c-.0144-.2592-.2592-.5904-.216-.8496a.16633.16633,0,0,1,.1872-.1584c.288.0432.8064.792,1.18081,1.5408Zm0,3.18241v1.8144a.42818.42818,0,0,1-.20161-.1872,6.45423,6.45423,0,0,1-.1296-.9792c-.0432-.2448-.288-.6768-.2736-.7776a.17918.17918,0,0,1,.2016-.1584.68881.68881,0,0,1,.40321.288Zm0,2.3904c-1.25281-.5904-2.72161-1.3104-2.96641-1.3392-.1152-.0144-.2592-.0432-.4032-.0576l-.0288.2304a16.23439,16.23439,0,0,0,2.4912,1.4832,7.02589,7.02589,0,0,1,.90721.4032v-.72Z" transform="translate(-849.48923 -295.41868)"/><path class="cls-1" d="M952.723,325.96114v-1.19521a9.70741,9.70741,0,0,0,1.1232.33121,3.15122,3.15122,0,0,1,1.39681.4752c.0144.0576-.0288.1152-.072.1728l-.648.1152a10.59687,10.59687,0,0,0-1.6128.0288S952.83824,325.91794,952.723,325.96114Zm0-1.19521v1.19521c-.3312.1296-.9504.3744-1.0368.3888-1.368.2448-1.512.0576-3.36961-1.39681-.3312-.2592-.7632-2.808-1.872-2.8656v-4.50721c.432.1008,1.44.6048,1.512,1.0944l.144.8064c.1008.5472-1.08,1.48321-1.0512,1.68481.0864.504,3.64321,2.664,4.11841,2.9232a8.62859,8.62859,0,0,0,1.5552.6768Zm-6.27841-10.45442v-.2448c.0864-.0576.1728-.1008.2448-.144.4608-.3024.36-.432.7632-.504.7632-.1296,2.0448-.0288,2.24641,1.1664a.7297.7297,0,0,1-.432.67681c-.1008.0144-.936-.1872-1.0368-.1584-.144.0144-.5472.3888-.6768.4032l-.2592.0432c-.0144-.0576-.0576-.0432-.072-.144-.0144-.1152.5184-.89281.504-1.008a.6126.6126,0,0,0-.648-.4032.98642.98642,0,0,0-.6336.3168Zm0-2.3616v-.2592c.2736-.1728.5328-.3888.4896-.6048a.32583.32583,0,0,0-.36-.2592c-.0432.0144-.072.0144-.1296.0288v-.864a.61727.61727,0,0,0,.4752.0576c.1008-.0144.288-.1296.3888-.144l.8064-.144c.2448-.0432.5616-.6048.9792-.6768.2304-.0432,1.54081-.0288,1.61281.4176.0432.2304-.8496.792-.9792.82081l-.67681.1152c-.1152.0144-.3744.288-.576.3744C947.85583,311.11471,947.13583,311.56111,946.44463,311.94991Zm0-1.95841v.864a3.695,3.695,0,0,0-.936.5184c-.288.216-.5616.5184-.8496.72a5.25431,5.25431,0,0,1-1.97281.936l-.1584.0288c-.0576-.0432-.0576-.0144-.072-.1152-.0144-.0144,2.1024-1.4976,1.8864-2.736-.1584-.87841-1.4544-1.224-2.0592-2.07361a.2645.2645,0,0,1,.1872-.1296,26.762,26.762,0,0,1,2.96641.4176c.9648.0432.5328,1.2528,1.008,1.5696Zm0,1.69921a2.79847,2.79847,0,0,0-.5472.4176l.1152.0864c.144-.0864.288-.1584.432-.2448v-.2592Zm0,2.376v.2448c-.3888.4464-.3456,1.224-1.2384,1.92961-.5616.4464-1.54081.504-2.16.9072-.5472.36-1.368,1.08-1.5264,1.1088a.2349.2349,0,0,1-.2448-.1728c-.1152-.7056.9936-1.584,1.368-1.944a15.128,15.128,0,0,0,1.296-1.85761c.0144.0576.0576.0288.072.1296.0288.1152-.1152.5328-.1008.6336.0576.33121.4176.23041.504.216a21.4388,21.4388,0,0,0,2.03041-1.19521Zm0,3.51361a.10885.10885,0,0,1-.0576-.0144c-.1296.4464-.2448,2.2896-.8352,2.3904-.3744.0576-1.61281-1.8288-2.75041-1.6272a.21363.21363,0,0,0-.1872.1728c.1152.1008,2.52,1.84321,2.57761,2.20321.0864.4176-.3024.6912-.5328,1.1808-.40321.864-.504,2.088-1.368,2.88a17.45944,17.45944,0,0,1-1.3104,1.41121,6.4788,6.4788,0,0,0-1.5264,1.224.68977.68977,0,0,0,.3744.0864c.1008-.0288.4752-.288.6912-.4032,4.33441-2.41921,3.888-4.824,4.76641-4.98241a.64577.64577,0,0,1,.1584-.0144v-4.50721Z" transform="translate(-849.48923 -295.41868)"/><path class="cls-1" d="M915.26857,334.42835V332.902a3.018,3.018,0,0,1,.72.0288,1.66916,1.66916,0,0,1,.5472.1584,2.91726,2.91726,0,0,1,.8784.7344,1.01994,1.01994,0,0,0,.0144.216c.0288.1152.0432.2016.072.3168-.072.3744-.36.504-.6768.70561a3.76408,3.76408,0,0,1-.3888.0864c-.1296-.0144-.2592-.10081-.3888-.11521a1.9766,1.9766,0,0,1-.3168-.288c-.1008-.0864-.1584-.0864-.3024-.2016C915.36937,334.50035,915.32617,334.47155,915.26857,334.42835Zm0-1.5264v1.5264c-.0864-.072-.1872-.144-.288-.216a3.29423,3.29423,0,0,0-.3312-.144c-.05761-.0144-.12961-.0288-.20161-.0432v-.8928a2.2484,2.2484,0,0,1,.82081-.2304Zm-.82081,5.78881v-2.304a.19879.19879,0,0,0,.0576.0432,3.22424,3.22424,0,0,1,.61921,1.512,1.38166,1.38166,0,0,1-.2736.6624A1.42588,1.42588,0,0,1,914.44776,338.69076Zm0-5.55841v.8928a4.688,4.688,0,0,1-.5616-.1152c-.0288,0-.1872-.1728-.1008-.288,0-.0144.0288-.0432.0576-.0576a1.79363,1.79363,0,0,1,.6048-.432Zm0,3.25441a3.47574,3.47574,0,0,1-.6912-.6912,2.31247,2.31247,0,0,0-.432-.4032c-.0576-.0864-.144-.1296-.1872-.2016-.144-.144-.432-.288-.5616-.40321a.40753.40753,0,0,1-.1296-.2592,2.244,2.244,0,0,0-.2304-.288c.0144-.0432.0144-.072.072-.0864.432-.1584.3744-.6048.6336-.7776,0,0,.576-.7488.6624-.8064.0864-.216.072-.36.1584-.576a2.14833,2.14833,0,0,0,.0288-.3024.99324.99324,0,0,0-.3888-.4176,3.386,3.386,0,0,0-1.008.72c-.0432.1296.0576.1728.0288.3024-.0864.0432-.3024.1872-.3888.2448a.44468.44468,0,0,1-.2304.1584c0-.0288-.0144-.072-.0144-.1152-.0144-.2592.072-.2448.0864-.3456a2.44293,2.44293,0,0,0,.144-.2016c.0288-.1296.0576-.2592.0864-.4032.0576-.288.1584-.4608.216-.7344a4.8062,4.8062,0,0,0,.072-1.31041c.1584-.1008.2592-.6192.504-1.0224.144-.2736.072-.3312.0576-.36a2.68436,2.68436,0,0,0-.2016-.3024c-.2448-.2592-1.3968.7344-1.3248.6624-.144.1152-.2736.2304-.4176.3312-.1008.1152-.1872.2304-.288.3456a7.09411,7.09411,0,0,1-.5616,1.152,3.01587,3.01587,0,0,1-.1872.504c.0432.432-.36.792-.504,1.152-.0576.1872-.1296.5328-.288.648a2.03365,2.03365,0,0,1-.72.0288c-.1008.0288-.2736,0-.36.0288-.0144,0-.0288.0144-.0432.0288a3.12707,3.12707,0,0,0-.1584.3744v.0576a.0141.0141,0,0,1,.0144.0144c.0576.3024.2736.4176.4176.7776.0288.1584.3312.4608.36.6192.2016.3024.288.60481.5328.99361.3456.5328.864,1.1376,1.39681,1.08a.65659.65659,0,0,0,.3168-.3888,1.02483,1.02483,0,0,0,.0432-.3312c.0144-.1584.1296-.4032.1584-.6192.0144-.144-.072-.24481-.072-.34561-.3168-.4896-.5184-.8496-.8064-1.3536.0432-.3024.3744-.5616.6192-.72.1152.0144.1728-.1152.2448-.072.0576.0864-.0288.1872-.0144.288a6.80873,6.80873,0,0,1,.1296.9792c.0144.144.3024.2736.4176.3024.1296.1872.2736.3456.3888.5472a1.96835,1.96835,0,0,1-.36.82081,1.44169,1.44169,0,0,1-.144.3168c-.1296.1728-.2448.4032-.3744.576-.1008.2448-.1872.504-.2736.7488-.3024.7632-.216.3888-.3744.864a6.10814,6.10814,0,0,0-.3888.9648,7.90634,7.90634,0,0,1-.59041.792c-.0432.216-.1152.47521-.1584.67681.072.1296.1728.072.30241.1296.288.144.576.3312.8496.4896.2736.0576.576-.2304.792-.3888.0288-.1296.1296-.3024.1728-.4464.0576-.1008.0432-.1872.0864-.2736a6.96,6.96,0,0,1,.2448-1.23841,4.42622,4.42622,0,0,0,.1152-.504,1.06432,1.06432,0,0,1,.2016-.576c.072-.288.144-.504.216-.7632a6.71009,6.71009,0,0,1,.3024-1.3248c.1872.0432.432.9216.5328,1.08-.0576.3456-.5616.504-.5328.8496a4.852,4.852,0,0,0,1.2528.7344c.0432.0144.2304.1296.4032.2304a.42258.42258,0,0,0,.144.0432v-2.304Zm-6.56641-5.42881v-1.20961a1.35081,1.35081,0,0,0,.144-.2016c.0864-.0864.2016-.4176.3456-.6336.1152-.1872.3456-.5184.4896-.7056.1584-.2304.216-.2736.2448-.3888a3.64534,3.64534,0,0,0,.59041-1.2096c.1728-.216.3312-.432.504-.6336a2.23858,2.23858,0,0,1,.1152-.3312c.0432-.1296.144-.36.288-.4032.216-.072.9936-.1296,1.1376.0864a1.19117,1.19117,0,0,1-.144.3744,4.3609,4.3609,0,0,1-.2736.6048,4.51115,4.51115,0,0,1-.216.4608,7.81066,7.81066,0,0,0-.576.7776,6.41432,6.41432,0,0,1-.4752.5904,8.80307,8.80307,0,0,1-.63361,1.0224c-.1008.1296-.216.2592-.3168.4032a6.27773,6.27773,0,0,0-.9216,1.12321,1.3498,1.3498,0,0,1-.3024.2736Zm0-3.80161a.11243.11243,0,0,0,.0576-.0576c.1296-.1584.2016-.4176.3168-.5328.1584-.1872.1872-.1008.3024-.2592a1.91824,1.91824,0,0,0,.432-.72.78657.78657,0,0,0-.0288-.67681c-.0864-.2592-.6192-.5472-1.08-.6624Zm0-2.90881v2.90881a3.55735,3.55735,0,0,1-.4464.3888c-.1296.144-.36.9216-.6336.864,0-.1296.0576-.4896.1584-.5616.0576-.288.216-.432.2736-.7056a1.381,1.381,0,0,0-.2016-.9936c-.1296-.0288-.1584-.1584-.2736-.1872-.1584-.072-.216,0-.3744-.0576-.0576.0144-.2016.0144-.3312.0288v-1.52641c.0144,0,.0144-.0144.0288-.0144.2304-.0576.4464-.0576.576-.1008a2.35522,2.35522,0,0,1,.72-.072,1.24108,1.24108,0,0,1,.504.0288Zm0,5.50081V330.958a2.12829,2.12829,0,0,0-.3312.3024c-.36.2448-.6048.3312-.9504.5472-.1008.0144-.3888.144-.4896.144a.08658.08658,0,0,1-.0576.0144v-.4896c.2304-.144.504-.288.7056-.4032.2736-.288.1584-.2736.2448-.3744s.4752-.2448.4608-.3312a3.15879,3.15879,0,0,1,.4176-.61921Zm0,3.312v0Zm-1.8288-8.65442a3.11513,3.11513,0,0,1-.7776.4608c-.1296.0864-.4032.1584-.5328.24481a10.30691,10.30691,0,0,1-1.08.3312c-.0144.0144-.0288.0144-.0432.0288a.31477.31477,0,0,1-.072.0432.165.165,0,0,0,.1008.1872c.1152.1584.576.0864.7632.1152a5.961,5.961,0,0,0,1.44.1296c.0432,0,.1152-.0144.2016-.0144v-1.52641Zm0,7.07042v.4896a.47217.47217,0,0,1-.36-.0576c-.0288-.0576-.0864-.072-.072-.144.0144-.0144.0288-.0432.0432-.0576l.1008-.072c.0864-.0432.1872-.1008.288-.1584Z" transform="translate(-849.48923 -295.41868)"/><path class="cls-1" d="M892.27172,362.88281a.52737.52737,0,0,1,.6768.0432,8.76615,8.76615,0,0,1,.9648,2.592c.072.072.1008.0288.1584.0288l.2016-.216c.576-.66241-.4608-3.24-.4896-3.44161l.6624-.7488a1.174,1.174,0,0,0-1.8432-1.45441,5.89818,5.89818,0,0,0-.3312.51841Zm0-2.6784v2.6784a.19879.19879,0,0,0-.0576.0432c-.072.0864-.5184.8208-.576.9072a1.25237,1.25237,0,0,1-.8928.5616.1715.1715,0,0,1-.0144-.2304c.072-.072.2592-.1584.3168-.2304.36-.4032.4176-1.0512.6768-1.512.1296-.2592-.1152-.7632-.2736-1.0512-.0432-.072-.1008-.288-.0288-.36.0144-.0144.5904-.4176.6336-.4752.0288-.0288.1152-.1728.216-.3312Zm-5.28481,16.488v-3.24a5.23483,5.23483,0,0,0,.1584.5616c.1008.36.9648,1.67041.4032,2.304a1.47714,1.47714,0,0,1-.5616.3744Zm0-7.61762v-2.4912a9.47812,9.47812,0,0,1,1.008.4896c.3024.2592.8208,1.152.4608,1.5696a2.26068,2.26068,0,0,1-1.4688.432Zm0-9.47522V352.342a.29549.29549,0,0,1,.2448.072c.3456.3024.4896,3.05281.6624,3.54241.1728.504-.2016.9072-.1296,1.4544a1.4031,1.4031,0,0,0,.2592.6048l.4176.3744c.7488.6624.8064,4.59361.7776,5.02561a28.26745,28.26745,0,0,0-2.1888-3.78721c-.0144-.0144-.0288-.0288-.0432-.0288Zm0,.0432.1152.1008-.1152-.1008.1152.1008-.1152-.1008.1152.1008-.1152-.1008.1152.1008Zm0-7.30081v7.25761a.8107.8107,0,0,0-.432-.1728v-6.81121a3.19064,3.19064,0,0,0,.36-.2304c.0288-.0144.0432-.0288.072-.0432Zm0,14.24163v2.4912c-.1008-.0144-.216-.0288-.3168-.0432a.42327.42327,0,0,1-.1152-.1152v-2.6352l.1584.1296-.1584-.1296v-.0576l.3888.3456a.06307.06307,0,0,0,.0432.0144Zm0,6.86881v3.24a3.0358,3.0358,0,0,1-.432.144v-5.80321c.144.8064.2592,1.6704.432,2.4192Zm-.1008-13.91043.1008.1008-.1008-.1008Zm-.3312,9.40322.0864.0576-.0864-.0576.0864.0576-.0864-.0576.0864.0576-.0864-.0576Zm.3312-9.40322.1008.1008-.1008-.1008Zm-.3312,6.73922.1584.1296-.1584-.1296.1584.1296-.1584-.1296Zm.3312-6.73922.1008.1008Zm0,0,.1008.1008Zm-.3312-6.92641v6.81121a1.00386,1.00386,0,0,0-.8064.3168,1.515,1.515,0,0,0-.1584.36v-5.22722l.0288.0288c.432.24481.5328.1008.7488-.144.288-.3168.2016-.4896-.0864-.7344a2.53019,2.53019,0,0,0-.6912-.3024v-.648a8.64918,8.64918,0,0,0,.9648-.4608Zm0,13.608v.0576l-.0576-.0576.0576.0576v2.6352c-.1296-.1728-.3024-.504-.5328-.2304-.1728.1872.216.8496.2304.8784a11.95477,11.95477,0,0,1,.3024,1.46881v5.80321a3.75719,3.75719,0,0,1-.9648.1152V374.446a2.235,2.235,0,0,0,0-.7632V365.734a8.79418,8.79418,0,0,1,.9648.4896Zm-.072,2.6496.072.072Zm0,0,.072.072-.072-.072Zm.0144-2.6496.0576.0576-.0576-.0576Zm-.0144,2.6496.072.072-.072-.072Zm.0144-2.6496.0576.0576Zm-.9072-13.14723v.648a.63374.63374,0,0,0-.144-.0288v-.576c.0432-.0144.0864-.0288.144-.0432Zm0,1.8v5.22722c-.0576.1296-.1008.2736-.144.4032V359.0524a1.21916,1.21916,0,0,0,0-.6048V354.79a1.26635,1.26635,0,0,0,.144.0864Zm0,10.85763v7.94881a6.13712,6.13712,0,0,1-.072-1.1664,24.10589,24.10589,0,0,0-.072-4.19041v-2.6496a1.494,1.494,0,0,0,.144.0576Zm0,8.712v2.50561h-.144V374.734a.89989.89989,0,0,0,.144-.288Zm-.144-15.46563a.52.52,0,0,0,.0432-.2592l-.0432.1728v.0864Zm.0432-.2592a.52.52,0,0,1-.0432.2592.52.52,0,0,0,.0432-.2592l-.0432.1728Zm-.0432-5.60161v.576a.743.743,0,0,0-.1584-.0288v-.4752a1.68928,1.68928,0,0,1,.1584-.072Zm0,1.6704v3.65761a.28945.28945,0,0,0-.0576-.1152c-.0432-.0576-.072-.1008-.1008-.144v-3.49921a1.51778,1.51778,0,0,0,.1584.1008Zm0,4.104v.0864a.23445.23445,0,0,1-.0432.0864.718.718,0,0,0,.0432-.1728Zm0,.1584c-.0432.216-.1008.4464-.1584.6624v.90721a.882.882,0,0,0,.0864-.0576s0,.1008-.0288.1296c0,0-.0144.0288-.0576,0v-.0144c.0576.0576.1008.0288.1008.0288a1.06071,1.06071,0,0,1,.0576-.2016V359.0524Zm0,6.624v2.6496c-.0432-.216-.1008-.432-.1584-.6192v-2.1024a1.40312,1.40312,0,0,1,.1584.072Zm0,9.05761v2.21761a.64577.64577,0,0,0-.1584-.0144V374.95a2.06052,2.06052,0,0,0,.1584-.216Zm-.1584-14.112c.0288-.0144.0576-.0576.1008-.144a.32372.32372,0,0,1-.0432.216s-.0144.0288-.0576,0c.0432.0288.0576,0,.0576,0,.0288-.0288.0288-.1296.0288-.1296a.882.882,0,0,1-.0864.0576.882.882,0,0,0,.0864-.0576s0,.1008-.0288.1296c0,0-.0144.0288-.0576,0,.0432.0288.0576,0,.0576,0,.0288-.0288.0288-.1296.0288-.1296a.882.882,0,0,1-.0864.0576.882.882,0,0,0,.0864-.0576s0,.1008-.0288.1296c0,0-.0144.0288-.0576,0,.0432.0288.0576,0,.0576,0,.0288-.0288.0288-.1296.0288-.1296a.882.882,0,0,1-.0864.0576.882.882,0,0,0,.0864-.0576s0,.1008-.0288.1296c0,0-.0144.0288-.0576,0,.0432.0288.0576,0,.0576,0,.0288-.0288.0288-.1296.0288-.1296a.882.882,0,0,1-.0864.0576Zm.1584-1.64161a.23445.23445,0,0,1-.0432.0864.718.718,0,0,0,.0432-.1728.718.718,0,0,1-.0432.1728A.23445.23445,0,0,0,885.44611,358.9804Zm-.1584-5.78881v.4752a.66916.66916,0,0,0-.6048.1152c-.144.1728.0432.4176.144.5184a2.87521,2.87521,0,0,0,.4608.3888v3.49921a1.4737,1.4737,0,0,0-.3456-.3024,5.37943,5.37943,0,0,0-.72-.4896l-.1296-.1152V353.494a4.35068,4.35068,0,0,0,1.19521-.3024Zm0,6.52321v.90721h-.0432l-.0144-.1728a.14525.14525,0,0,0,.0144.216c.0144.0144.0288.0288.0432.0288v-.0144h-.0144c-.1872-.1728-.1008-.5472.0144-.96481Zm0,.90721h-.0432l-.0144-.1728a.14525.14525,0,0,0,.0144.216c.0144.0144.0288.0288.0432.0288-.0144,0-.0288-.0144-.0432-.0288a.161.161,0,0,1-.0288-.216c.0144.0576.0144.1584.0432.1872a.05028.05028,0,0,1,.0288-.0144Zm0,4.98241v2.1024a2.41515,2.41515,0,0,0-.6336-1.008l-.54721-.4896c-.0144,0-.0144,0-.0144-.0144v-1.296l.144.1296a5.63937,5.63937,0,0,0,1.05121.576Zm0,9.34561v1.98721a1.35309,1.35309,0,0,1-.70561-.2304,3.44784,3.44784,0,0,1-.4896-.8496v-.4752c.1872-.2016.73441.0864,1.09441-.3168.0288-.04321.072-.072.1008-.11521Zm-.0576-14.50082.0144.1728h0l-.0144-.1728a.14525.14525,0,0,0,.0144.216c.0144.0144.0288.0288.0432.0288-.0144,0-.0288-.0144-.0432-.0288A.14525.14525,0,0,1,885.23011,360.44921Zm0,0,.0144.1728h0l-.0144-.1728a.14525.14525,0,0,0,.0144.216c.0144.0144.0288.0288.0432.0288-.0144,0-.0288-.0144-.0432-.0288A.14525.14525,0,0,1,885.23011,360.44921Zm0,0,.0144.1728h0l-.0144-.1728a.14525.14525,0,0,0,.0144.216c.0144.0144.0288.0288.0432.0288-.0144,0-.0288-.0144-.0432-.0288A.14525.14525,0,0,1,885.23011,360.44921ZM884.0925,353.494v3.78721l-2.4768-2.34721c-.1728-.2016-.432-.5328-.7056-.8928v-1.8a11.47009,11.47009,0,0,1,2.1312.36l.9648.864c.0144.0144.0432.0144.0864.0288Zm0,11.40482v1.296c-.1152-.1152-.6624-.792-.9792-1.19521l-2.2032-1.9728v-1.2672a7.5415,7.5415,0,0,0,.9936,1.1952l2.1888,1.944Zm0,10.48323v.4752c-.072-.2016-.1008-.3744-.0144-.4608,0-.0144,0-.0144.0144-.0144Zm-3.1824-6.048v-2.4336a1.95489,1.95489,0,0,1,2.6928.1296,11.54292,11.54292,0,0,1-.0576,4.86721s-.0432.0432-.1152-.0288a4.54217,4.54217,0,0,0-.3888-1.3968c-.0576-.0864-.0432-.2592-.1008-.3168a11.75905,11.75905,0,0,0-.9216-1.10881.72073.72073,0,0,0-.9072.0864A.671.671,0,0,1,880.9101,369.334Zm0-17.09283v1.8c-.5184-.72-1.0512-1.5552-.9504-1.6704a1.47536,1.47536,0,0,1,.9504-.1296Zm0,9.51842v1.2672l-.8496-.7776c-.2016-.1728-.47521-.576-.66241-.7632l-.5616-.4896a1.066,1.066,0,0,1-.3312-.432V357.382c.0144.0288.0432.0432.072.072-.0288-.0432-.0432-.0864-.072-.1296v-.0288a10.70514,10.70514,0,0,1,1.08,2.448,23.79941,23.79941,0,0,0,1.32481,2.016Zm0,5.14081v2.4336a6.14165,6.14165,0,0,1-2.40481.4896v-.4608a12.97922,12.97922,0,0,0,1.0944-.7344c.41761-.4752.23041-.576.90721-1.3392a5.0447,5.0447,0,0,1,.4032-.3888Zm-2.40481-9.576c.0288.0432.0432.0864.072.1296-.0288-.0288-.0576-.0432-.072-.072.0144.0288.0432.0432.072.072C878.54849,357.4108,878.53409,357.3676,878.50529,357.3244Zm0-.0288v.0288c-.0288-.0288-.0432-.0576-.0864-.072l.0864.1296v3.18241a1.98124,1.98124,0,0,0-.5904-.72l-1.8-1.5984a4.44151,4.44151,0,0,0-2.76481-.8064v-1.1808l.1872-.216c1.19521-1.33921,3.68641-.0144,4.27681.504a6.964,6.964,0,0,1,.6336.6768c.0144.0288.0432.0432.0576.072Zm0,12.06722v.4608a3.37278,3.37278,0,0,0-.432.072.4204.4204,0,0,1-.072-.2016c.0864-.0576.2736-.1728.504-.3312Zm-.0864-12.11042c.0432.0144.0576.0432.0864.072-.0288-.0288-.0432-.0576-.0864-.072l.0864.1296Zm-5.06881-.9936v1.1808a2.22216,2.22216,0,0,0-1.512.504v.0144a.27128.27128,0,0,0,.1152-.0288c-.0288-.0144-.072,0-.1152,0v.0144a.24756.24756,0,0,0,.1152-.0144.31707.31707,0,0,0-.1152-.0144v-.3312c.144-.1152.9648-.7056,1.0224-.7776l.4896-.5472Zm-1.512,1.3248c0,.0144,0,.0144-.0144.0144-.0288.0432-.216.2304,0,.3744,0-.0144.0144-.0144.0144-.0288v.0144a.15526.15526,0,0,1-.1008-.0288.12389.12389,0,0,1-.0144-.1872c.0144.0864-.0288.0864.0432.1584a.24329.24329,0,0,0,.072.0288v.0144a.28945.28945,0,0,1-.1152-.0576.44515.44515,0,0,1,.1152.0288v-.3312Z" transform="translate(-849.48923 -295.41868)"/><path class="cls-1" d="M1041.12482,412.37571v-2.664h.0864c-.0144.89281-.0432,1.77121-.0864,2.664Zm0-6.03361v-1.84321c.0288.61921.0576,1.224.072,1.84321Zm0-1.84321v1.84321h-1.224v-3.39841l1.1232-.1008c.0288.5472.072,1.1088.1008,1.656Zm0,5.21281v2.664c-.0144.2736-.0288.5472-.0576.8352l-1.1664-.1008V409.7117Zm-1.224,10.23842v-3.4704l.9072.072c-.1152,1.1664-.2736,2.3328-.432,3.4848l-.4752-.0864Zm0-20.376v-3.4848l.3312-.0576c.1872,1.152.3456,2.304.4752,3.4704Zm0-3.4848v3.4848l-1.944.1728.288,3.34081,1.656-.144v3.39841l-1.46881.0144-.0144,3.3552h1.48321v3.39841l-1.584-.144-.288,3.34081,1.872.1728v3.4704l-2.26081-.3888-.5904,3.29761,2.76481.4896c-.23041,1.152-.47521,2.28961-.73441,3.42721l-2.6928-.72-.5472,2.0592V388.83166l.3168,1.1952,2.7072-.72q.432,1.68482.7776,3.41281l-2.736.4896.576,3.29761,2.41921-.4176ZM1035.84,437.115v-.6624l.216.0864c-.072.1872-.144.3744-.216.576Zm0-4.23361v-3.49921l2.3904.648c-.3168,1.12321-.6768,2.232-1.0368,3.34081l-1.3536-.4896Zm0-46.23849v-3.528l1.0656-.3888c.3888,1.0944.7344,2.2176,1.0656,3.34081Zm0-3.528v3.528l-.5472.144.5472,2.0448v39.28328l-.3312,1.1808.3312.0864v3.49921l-1.26721-.4608-.936,2.5632V419.70532a72.34267,72.34267,0,0,0,0-22.47844V381.94845l.6336,1.7424,1.56961-.576Zm0,53.33771v.6624c-.36.8928-.72,1.7856-1.1088,2.664l-1.09441-.504v-3.6144l2.20321.792Zm-2.20321-56.11691v-3.64321l.7488-.3456c.47521,1.0512.92161,2.1312,1.35361,3.2256Zm0-3.64321-1.8.8352-1.4112-3.03841,2.52-1.1808c-.5328-1.0512-1.08-2.088-1.6416-3.096l-2.43361,1.3968-1.6704-2.90881,2.4048-1.3968q-.9288-1.4904-1.9008-2.93761l-2.2896,1.59841-.36-.504V372.79a71.21869,71.21869,0,0,1,8.58241,24.43685V381.94845l-.5184-1.4256.5184-.1872v-3.64321Zm0,43.01288v15.27843l-.216.59041.216.0864v3.6144l-1.4256-.6624-1.4256,3.03841,2.5488,1.1808c-.5184,1.0512-1.0512,2.1024-1.5984,3.12481l-2.41921-1.39681-1.6848,2.90881,2.43361,1.3968c-.60481,1.008-1.224,2.00161-1.872,2.96641l-2.2752-1.584-.864,1.224v-7.32962a71.21862,71.21862,0,0,0,8.58241-24.43685Zm-8.58241,36.51848V453.747l1.224.8496c-.4032.54721-.8064,1.09441-1.224,1.62721Zm0-94.11859V360.694c.2448.3168.4752.6192.7056.9216l-.7056.4896Zm0-1.4112v1.4112l-1.56961,1.1088,1.56961,2.24641V372.79a71.70316,71.70316,0,0,0-7.74722-11.00162V355.4668l1.7424-1.74241c.80641.8496,1.59841,1.69921,2.376,2.57761l-2.11681,1.7712,2.16,2.57761,2.1312-1.78561c.504.6048.9792,1.20961,1.45441,1.82881Zm0,83.44816v7.32962l-1.06561,1.5264,1.06561.7488v2.47681c-.288.3888-.59041.7776-.89281,1.1664l-2.1312-1.7712-2.16,2.5632,2.1456,1.8c-.7632.87841-1.5552,1.74241-2.3616,2.57761l-1.944-1.944-.4032.3888V455.1438a71.70325,71.70325,0,0,0,7.74722-11.00163Zm-7.74722-88.67537v6.32161c-1.2384-1.4688-2.5488-2.88-3.91681-4.248v-7.73282l.6768-.792c.87841.7632,1.74241,1.54081,2.592,2.34721l-1.9584,1.9584,2.376,2.376.2304-.2304Zm0,99.677v5.86081l-1.9872,1.9872,1.9728,1.9584c-.8352.82081-1.6992,1.61281-2.5632,2.39041l-1.33921-1.584V459.3918c1.368-1.368,2.67841-2.7792,3.91681-4.248Zm-3.91681-105.33622-1.1232,1.33921-2.5632-2.16,1.7712-2.1168c-.9072-.7344-1.84321-1.44-2.79361-2.11681l-1.5984,2.27521-2.75041-1.9296,1.584-2.26081c-.9648-.648-1.95841-1.2672-2.952-1.872l-1.3968,2.4192-2.90881-1.6848,1.38241-2.40481q-1.53362-.8424-3.11041-1.5984l-1.1952,2.53441-3.03841-1.42561,1.1664-2.52c-.8352-.36-1.6848-.72-2.5344-1.0512v7.25761a72.38221,72.38221,0,0,1,22.06084,15.048v-7.73282Zm0,109.58422v6.36482l-.4464-.5328-2.5632,2.16,1.7856,2.1312c-.9072.73441-1.8288,1.45441-2.76481,2.14561l-1.5984-2.26081-2.7504,1.92961,1.5984,2.2752q-1.4472.9936-2.93761,1.90081l-1.3824-2.39041-2.90881,1.6704,1.39681,2.41921c-1.0224.576-2.05921,1.1232-3.096,1.6416l-1.1808-2.5056-3.03841,1.4112,1.18081,2.53441c-1.06561.4752-2.14561.936-3.24,1.368l-.1152-.3456v-6.88322a72.0851,72.0851,0,0,0,22.06084-15.03363Zm-22.06084-124.157v7.25761a70.87342,70.87342,0,0,0-6.84-2.56321V332.902c1.008.288,1.98721.6048,2.96641.936l-.936,2.60641,3.15361,1.152.9504-2.63521c.2304.10081.4752.18721.7056.27361Zm0,139.19067v6.88322l-.8352-2.27521-3.15361,1.152.9504,2.6208q-1.6416.5832-3.3264,1.08l-.47521-1.728V477.003a67.35121,67.35121,0,0,0,6.84-2.57761Zm-6.84-141.52348v7.02721a1.694,1.694,0,0,0-.288-.1008v-7.01281c.1008.0288.2016.0576.288.0864Zm0,144.10109v5.15521l-.2448-.9504h-.0432v-4.104c.1008-.0288.2016-.072.288-.1008Zm-.288-144.18749v7.01281c-1.4976-.4752-3.0096-.8928-4.5504-1.2672V331.678c.4032.0864.8064.1728,1.2096.2736l-.72,2.6784,3.24.87841.7344-2.70721c.0288,0,.0576.0144.0864.0144Zm0,144.28829v4.104l-3.2112.864.7344,2.6928c-.6912.1728-1.3824.34561-2.0736.48961V478.371c1.5408-.3744,3.0528-.792,4.5504-1.2672ZM979.6511,331.678v6.88321c-1.584-.3888-3.21121-.72-4.83841-1.008v-3.96l2.1312.3744.4896-2.7504c.7488.144,1.4832.288,2.21761.4608Zm0,146.69309v6.88322c-.44641.1008-.89281.2016-1.35361.288l-.4752-2.72161-3.0096.5184v-3.96c1.6272-.288,3.2544-.6192,4.83841-1.008Zm-4.83841,7.80482a.72958.72958,0,0,1,.1872-.0288l-.1872-1.0368v1.0656Zm0-152.58271v3.96a73.35785,73.35785,0,0,0-7.81922-.8928v-6.72482c.1008,0,.2016.0144.3024.0144l-.2448,2.75041,3.35521.3024.2448-2.7936c1.1664.1296,2.3184.2736,3.4704.4464l-.4752,2.736,1.16641.2016Zm0,145.78589v3.96l-.30241.0576.30241,1.71361v1.0656c-1.09441.1584-2.18881.3168-3.28321.432l-.2448-2.75041-3.35521.3024.2448,2.76481c-.3888.0288-.792.0576-1.1808.072v-6.72481a73.35786,73.35786,0,0,0,7.81922-.89281Zm-7.81922-149.4435v6.72482c-1.4688-.1008-2.93761-.144-4.43521-.144-1.1952,0-2.376.0288-3.57121.0864v-6.71042c.4896-.0288.96481-.0432,1.45441-.0576v2.76481h3.3552v-2.77921c1.06561.0144,2.13121.0576,3.19681.1152Zm0,150.33631v6.72481c-.7776.0432-1.5408.072-2.3184.1008v-2.76481h-3.35521v2.77921c-.7776-.0144-1.5552-.0432-2.33281-.072v-6.71041c1.19521.0576,2.376.0864,3.57121.0864,1.4976,0,2.96641-.0432,4.43521-.144Zm-8.00642-150.37951v6.71042c-2.1168.1008-4.2048.3024-6.264.5904v-6.768c.288-.0432.576-.072.864-.1008l.2448,2.7504,3.35521-.288-.2448-2.77921c.6768-.0432,1.368-.0864,2.0448-.1152Zm0,150.43711v6.71041c-.3888-.0144-.7776-.0432-1.1664-.0576l.2304-2.75041-3.3408-.3024-.24481,2.77921c-.576-.0576-1.1664-.1152-1.7424-.2016v-6.768c2.05921.288,4.14721.48961,6.264.59041Zm-6.264-149.9043v6.768c-2.1312.288-4.21921.6624-6.27841,1.1376V331.462c.1296-.0288.2448-.0576.36-.072l.4896,2.736,3.312-.5904-.4896-2.7504c.864-.1296,1.728-.2592,2.6064-.36Zm0,149.31389v6.768c-.576-.072-1.152-.144-1.728-.2304l.4752-2.72161-3.312-.5904-.4752,2.75041c-.4176-.0864-.8208-.1584-1.2384-.2448v-6.86882c2.0592.4752,4.14721.8496,6.27841,1.1376ZM946.44463,331.462v6.86881c-2.14561.4896-4.26241,1.08-6.336,1.75681v-7.02722a.0529.0529,0,0,0,.0432-.0144l.72,2.69281,3.2544-.87841-.7344-2.6928c1.008-.2592,2.03041-.4896,3.05281-.7056Zm0,147.13949v6.86882c-.7344-.1584-1.4688-.3168-2.18881-.48961l.70561-2.6784-3.24-.8784-.72,2.7072c-.3024-.0864-.6048-.1728-.8928-.2592v-7.02721c2.0736.6768,4.1904,1.2672,6.336,1.7568Zm-6.336-145.54109v7.02722a71.23012,71.23012,0,0,0-12.672,5.57281v-7.488l1.1376,2.43361,3.03841-1.42561-1.1808-2.5344c1.0656-.4752,2.1456-.936,3.24-1.368l.9504,2.6208,3.15361-1.152-.9648-2.62081c1.0944-.3744,2.1888-.7344,3.29761-1.0656Zm0,143.78429v7.02721q-1.23121-.3672-2.46241-.7776l.9504-2.6064-3.1536-1.152-.95041,2.62081c-1.0944-.4176-2.1744-.8496-3.24-1.3248l1.1664-2.50561-3.05281-1.4256-1.1808,2.5344c-.2448-.1152-.4896-.2448-.7488-.3744v-7.58881a71.23084,71.23084,0,0,0,12.672,5.57281Zm-12.672-138.67228v7.488a71.86957,71.86957,0,0,0-12.168,8.58241v-8.64c.1584-.1152.3024-.216.4464-.3312l1.584,2.2608,2.76481-1.9152-1.59841-2.28961c.9504-.6624,1.944-1.296,2.93761-1.9008l1.3824,2.4048,2.90881-1.6848-1.39681-2.41921c1.02241-.5616,2.05921-1.1088,3.096-1.6416l.0432.0864Zm0,133.09947v7.58881c-.792-.3888-1.584-.8064-2.3616-1.224l1.3824-2.4048-2.90881-1.68481-1.3968,2.41921c-.9936-.6048-1.9872-1.224-2.952-1.872l1.584-2.2608-2.75041-1.92961L916.435,472.179c-.3888-.2736-.7776-.5616-1.1664-.8496v-3.21121l.144-.1728-.144-.1152v-5.14081a71.86962,71.86962,0,0,0,12.168,8.58242Zm-12.168-125.66905v8.64l-.82081.7344v-5.16961l.288-.2592-.288-.3456v-2.9664c.27361-.2016.54721-.4176.82081-.6336Zm0,117.08663v5.14081l-.82081-.6912v-5.184l.82081.7344Zm0,5.42881v3.21121l-.82081-.648v-1.56961l.82081-.9936Zm-.82081-121.88184v2.9664l-1.4976-1.7712c.4896-.4032.9936-.8064,1.4976-1.1952Zm0,3.5712v5.16961a70.64065,70.64065,0,0,0-6.56641,6.72482V355.8412l1.90081-1.90081-1.90081-1.9008v-.1152c.8208-.792,1.656-1.5696,2.50561-2.31841l1.7856,2.10241,2.2752-1.90081Zm0,112.14743v5.184l-1.6128-1.3536-1.7712,2.1312c-.8928-.7632-1.75681-1.5552-2.60641-2.3472l1.944-1.95841-2.36161-2.376-.1584.144V455.2302a72.38305,72.38305,0,0,0,6.56641,6.72481Zm0,7.15681v1.56961c-.2736-.2016-.5472-.4032-.8064-.6192l.8064-.95041Zm-6.56641-117.18743v.1152l-.0576-.0576c.0288-.0144.0432-.0432.0576-.0576Zm0,3.91681V361.702c-.6192.72-1.2384,1.4688-1.8288,2.232v-8.97122l1.3536,1.35361.4752-.4752Zm0,99.389V461.379l-1.8,1.8144a.05028.05028,0,0,1-.0288-.0144V452.99819c.5904.7632,1.2096,1.512,1.8288,2.232Zm-1.8288-100.26741V363.934a71.555,71.555,0,0,0-13.78083,29.13126V378.03164l.6336.288,1.4112-3.0384-2.0448-.96481v-1.1808c.36-.72.7344-1.44,1.1232-2.1456l2.40481,1.3824,1.6704-2.90881-2.4048-1.3968c.5904-1.008,1.224-1.9872,1.8576-2.9664l2.2752,1.584,1.92961-2.75041-2.28961-1.584c.6912-.9504,1.39681-1.8864,2.13121-2.79361l2.1024,1.77121,2.16-2.57761-2.13121-1.7856c.7776-.8784,1.55521-1.7424,2.36161-2.592l.5904.5904Zm0,98.0354V463.179c-.8064-.8352-1.59841-1.6848-2.36161-2.5488l2.10241-1.77121-2.14561-2.5776-2.1312,1.7856c-.7344-.9072-1.4544-1.8288-2.14561-2.7648l2.26081-1.584-1.9296-2.7504-2.28961,1.5984c-.648-.9648-1.2816-1.944-1.8864-2.93761l2.3904-1.3968-1.6848-2.9088-2.40481,1.3968q-.8208-1.4472-1.5552-2.93761v-.2016l2.41921-1.1232-1.41121-3.05281-1.008.4752V423.86693a71.555,71.555,0,0,0,13.78083,29.13126Zm-13.78083-79.86256v1.1808l-.4896-.216c.1584-.3168.3168-.648.4896-.9648Zm0,4.896v15.03363a72.442,72.442,0,0,0,0,30.80166v16.01283l-1.5264.70561c-.4752-1.06561-.936-2.13121-1.368-3.22561l2.60641-.9504-1.1376-3.15361-2.63521.9504c-.3744-1.0944-.7344-2.2176-1.0656-3.3408l2.67841-.72-.864-3.24-1.9728.5328v-3.48481l1.224-.216-.576-3.312-.648.1008v-3.312l.1728-.0288-.1728-1.9728V401.73409l.1008-1.1088-.1008-.0144v-3.312l.4896.0864.576-3.312-1.0656-.1872v-3.4704l1.7424.4608.864-3.24-2.6064-.7056v-.36c.288-1.008.6048-2.016.936-3.00961l2.62081.9504,1.152-3.1536-2.63521-.9648c.4176-1.09441.864-2.17441,1.32481-3.24l1.8864.8784Zm0,65.54893v.2016a1.57072,1.57072,0,0,1-.0864-.1584l.0864-.0432Zm-5.28481-57.00971v.36l-.0864-.0288c.0288-.1008.0576-.216.0864-.3312Zm0,3.84481v3.4704l-.432-.072v-3.5136l.432.1152Zm0,6.88321v3.312l-.432-.0288v-3.35521l.432.072Zm0,4.43521v13.47843l-.1152-1.368-.3168.0288v-3.2832h.1296V407.2349h-.1296v-3.28321l.2304.0144.2016-2.232Zm0,15.48v3.312l-.432.0864v-3.36961l.432-.0288Zm0,6.73921v3.48481l-.432.1152v-3.528l.432-.072Zm-.432-33.65286v3.5136l-.9648-.1728v-1.3968c.144-.7056.288-1.3968.4608-2.088l.504.144Zm0,6.92641v3.35521l-.9648-.0864v-3.44161l.9648.1728Zm0,6.72481v3.28321h-.9648v-3.36961l.9648.0864Zm0,6.63842v3.2832l-.9648.0864v-3.3696Zm0,6.65281v3.36961l-.9648.1728v-3.456l.9648-.0864Zm0,6.78241v3.528l-.3024.072c-.2304-.9648-.4608-1.9296-.6624-2.90881v-.5184l.9648-.1728Zm-.9648-31.78086v1.3968l-.144-.0288v-.7056c.0432-.216.0864-.4464.144-.6624Zm0,4.80961v3.44161l-.144-.0144v-3.456l.144.0288Zm0,6.81121v3.36961h-.144v-3.384l.144.0144Zm0,6.72482v3.3696l-.144.0144v-3.384Zm0,6.73921v3.456l-.144.0288v-3.47041l.144-.0144Zm0,6.86881v.5184c-.0432-.1728-.072-.3312-.1152-.504l.1152-.0144Zm-.144-31.29126v.7056l-.1296-.0288c.0432-.216.0864-.4464.1296-.6768Zm0,4.11841v3.456l-.1584-.0144v-3.47041l.1584.0288Zm0,6.82561v3.384h-.1584v-3.39841l.1584.0144Zm0,6.73922v3.384l-.1584.0144v-3.3984Zm0,6.75361v3.47041l-.1584.0288v-3.48481l.1584-.0144Zm-.1584-20.34724v3.47041l-.97921-.0864c.1296-1.16641.2736-2.33281.44641-3.48481l.5328.1008Zm0,6.84v3.39841H884.0925v-3.49921l1.19521.1008Zm0,6.75362v3.3984l-1.18081.1008a1.74269,1.74269,0,0,1-.0144-.2736v-3.2256Zm0,6.768v3.48481l-.4032.0576c-.1872-1.13761-.34561-2.304-.47521-3.47041l.87841-.072Zm-1.19521-13.62243v3.49921h-.1728c.0144-1.1808.0576-2.34721.1296-3.51361l.0432.0144Zm0,6.85442v3.2256c-.072-1.0656-.1296-2.1456-.1584-3.2256Z" transform="translate(-849.48923 -295.41868)"/><path class="cls-1" d="M948.8202,472.735h-1.50927v-5.6875a5.19962,5.19962,0,0,1-1.94971,1.14355v-1.37012a4.36952,4.36952,0,0,0,1.28369-.73242,2.79073,2.79073,0,0,0,.95069-1.25976h1.2246Zm5.75049-4.24805a1.68946,1.68946,0,0,1-1.11718-1.62793,1.90834,1.90834,0,0,1,.61523-1.45605,2.94039,2.94039,0,0,1,3.49121,0,1.9023,1.9023,0,0,1,.62012,1.45605,1.71378,1.71378,0,0,1-.28467.97461,1.8009,1.8009,0,0,1-.80029.65332,2.09949,2.09949,0,0,1,.99609.76758,2.03162,2.03162,0,0,1,.34131,1.166,2.36966,2.36966,0,0,1-.6958,1.77149,2.5261,2.5261,0,0,1-1.8501.68262,2.80188,2.80188,0,0,1-1.78857-.56348,2.20113,2.20113,0,0,1-.84326-1.82617,2.25675,2.25675,0,0,1,.31689-1.17383A2.04114,2.04114,0,0,1,954.57069,468.487Zm.17188,1.85254a1.38591,1.38591,0,0,0,.31933.97168,1.03563,1.03563,0,0,0,.79786.34961,1.00247,1.00247,0,0,0,.77343-.33594,1.38925,1.38925,0,0,0,.30616-.96875,1.25648,1.25648,0,0,0-.31153-.88965,1.02994,1.02994,0,0,0-.78955-.335.94414.94414,0,0,0-.82422.38086A1.39629,1.39629,0,0,0,954.74257,470.33949Zm.13965-3.37305a.948.948,0,0,0,.25488.7041,1.04869,1.04869,0,0,0,1.36719-.00293.948.948,0,0,0,.25781-.70605.878.878,0,0,0-.9292-.93555.93628.93628,0,0,0-.69287.25782A.9227.9227,0,0,0,954.88222,466.96644Zm6.74365,3.94824,1.46094-.1621a1.05687,1.05687,0,0,0,.27929.66113.82727.82727,0,0,0,.59619.21484.97321.97321,0,0,0,.79493-.42969,3.66265,3.66265,0,0,0,.41894-1.7832,1.80217,1.80217,0,0,1-1.42334.66113,2.1251,2.1251,0,0,1-1.603-.71777,2.61134,2.61134,0,0,1-.67431-1.86621,2.65379,2.65379,0,0,1,.71142-1.93066,2.57571,2.57571,0,0,1,3.77881.19336,4.785,4.785,0,0,1,.76807,3.04785,4.84537,4.84537,0,0,1-.80029,3.11523,2.588,2.588,0,0,1-2.084.95606,2.20667,2.20667,0,0,1-1.49316-.49122A2.37463,2.37463,0,0,1,961.62587,470.91468Zm3.416-3.29882a1.72251,1.72251,0,0,0-.33544-1.13282.99111.99111,0,0,0-.77637-.40234.86706.86706,0,0,0-.69531.33008,1.68308,1.68308,0,0,0-.27686,1.082,1.71881,1.71881,0,0,0,.30078,1.12012.94234.94234,0,0,0,.75195.35644.93138.93138,0,0,0,.73291-.34375A1.49673,1.49673,0,0,0,965.04188,467.61586Zm9.98291-.82618-1.46093.16016a1.064,1.064,0,0,0-.2793-.666.817.817,0,0,0-.58545-.21485.99033.99033,0,0,0-.80859.42969,3.62708,3.62708,0,0,0-.416,1.78906,1.7635,1.7635,0,0,1,1.40186-.666,2.14252,2.14252,0,0,1,1.61963.71972,2.61,2.61,0,0,1,.67382,1.8584,2.66709,2.66709,0,0,1-.709,1.93945,2.58183,2.58183,0,0,1-3.78125-.19628,4.76645,4.76645,0,0,1-.76807-3.03809,4.85541,4.85541,0,0,1,.8003-3.12012,2.58283,2.58283,0,0,1,2.07861-.95605,2.20392,2.20392,0,0,1,1.48486.50195A2.35269,2.35269,0,0,1,975.02479,466.78968Zm-3.42138,3.292a1.71,1.71,0,0,0,.33838,1.13574.99638.99638,0,0,0,.77343.40039.8794.8794,0,0,0,.69825-.32813,1.65028,1.65028,0,0,0,.27929-1.07421,1.72843,1.72843,0,0,0-.30078-1.125.96637.96637,0,0,0-1.48779-.01563A1.47925,1.47925,0,0,0,971.60341,470.08168Z" transform="translate(-849.48923 -295.41868)"/><path class="cls-1" d="M1017.30717,443.13417V428.41734l1.9584-.792v-6.07681l-1.944-1.1088h-.0144V410.08611l1.9584-.792v-6.07681l-1.944-1.1232-.0144.0144v-10.296h2.16v4.80961c-.3312.0288-.648.072-.9648.1008v2.016l2.63521,1.49761-.0144,12.024-2.62081,1.0656v3.744l2.63521,1.512-.0144,12.00963-2.62081,1.0656v11.47682Z" transform="translate(-849.48923 -295.41868)"/><path class="cls-1" d="M1017.30717,391.81247v10.296l-1.944,1.1088v6.07681l1.944.792h0v10.35362l-1.944,1.1088v6.07681l1.944.792h0v14.71683h-1.3536V431.62855l-2.53441-1.0368v-12.024l2.53441-1.44v-3.84481l-2.53441-1.0224v-12.024l2.53441-1.44v-1.7568c-.864.1296-1.71361.2736-2.56321.4464v-5.67361Z" transform="translate(-849.48923 -295.41868)"/><path class="cls-1" d="M1013.39036,391.81247v5.67361a63.29674,63.29674,0,0,0-17.89923,6.84V391.81247Z" transform="translate(-849.48923 -295.41868)"/><path class="cls-1" d="M991.32952,406.8461V390.17087h1.9008V405.6221c-.6624.4176-1.296.8208-1.9008,1.224Z" transform="translate(-849.48923 -295.41868)"/><polygon class="cls-1" points="141.84 92.491 141.84 76.522 147.327 88.315 142.877 92.491 141.84 92.491 141.84 92.491"/><polygon class="cls-1" points="141.84 76.522 141.84 92.491 135 92.52 135 61.863 141.84 76.522 141.84 76.522"/><path class="cls-1" d="M991.32952,390.17087V406.8461c-.6624.4176-1.296.8496-1.91521,1.2672V390.17087Z" transform="translate(-849.48923 -295.41868)"/><path class="cls-1" d="M984.4895,411.68451V390.17087h1.81441v20.14564c-.6336.4752-1.2384.9216-1.81441,1.368Z" transform="translate(-849.48923 -295.41868)"/><polygon class="cls-1" points="135 61.863 135 92.52 134.712 92.52 134.712 61.243 135 61.863 135 61.863"/><path class="cls-1" d="M984.4895,390.17087v21.51364c-.0864.072-.1872.144-.288.216V390.17087Z" transform="translate(-849.48923 -295.41868)"/><polygon class="cls-1" points="134.712 61.243 134.712 92.52 134.165 92.535 130.162 82.872 130.162 58.81 133.027 57.629 134.712 61.243 134.712 61.243"/><path class="cls-1" d="M984.2015,390.17087v21.72964c-1.8576,1.4544-3.3552,2.7504-4.5504,3.816V390.17087Z" transform="translate(-849.48923 -295.41868)"/><polygon class="cls-1" points="130.162 146.29 130.162 138.427 132.783 141.667 132.783 146.29 130.162 146.29 130.162 146.29"/><polygon class="cls-1" points="130.162 58.81 130.162 82.872 126.259 73.426 126.317 60.408 130.162 58.81 130.162 58.81"/><path class="cls-1" d="M979.6511,390.17087v25.54565a39.78969,39.78969,0,0,0-3.41281,3.4272h-1.4256V390.17087Z" transform="translate(-849.48923 -295.41868)"/><polygon class="cls-1" points="130.162 138.427 130.162 146.29 125.323 146.29 125.323 135.389 127.699 135.389 130.162 138.427 130.162 138.427"/><rect class="cls-1" x="125.32345" y="127.15225" width="2.0016" height="5.37121"/><polygon class="cls-1" points="125.323 94.752 125.323 123.725 117.504 123.725 117.504 94.752 125.323 94.752 125.323 94.752"/><polygon class="cls-1" points="125.323 127.152 125.323 132.523 117.504 132.523 117.504 127.152 125.323 127.152 125.323 127.152"/><polygon class="cls-1" points="125.323 135.389 125.323 146.29 117.504 146.29 117.504 135.389 125.323 135.389 125.323 135.389"/><rect class="cls-1" x="117.50424" y="53.58251" width="7.07041" height="38.80808"/><polygon class="cls-1" points="117.504 53.583 117.504 92.391 117.49 92.391 117.49 53.583 117.504 53.583 117.504 53.583"/><polygon class="cls-1" points="117.504 94.752 117.504 123.725 109.498 123.725 109.498 94.752 117.504 94.752 117.504 94.752"/><polygon class="cls-1" points="117.504 127.152 117.504 132.523 109.498 132.523 109.498 127.152 117.504 127.152 117.504 127.152"/><polygon class="cls-1" points="117.504 135.389 117.504 146.29 109.498 146.29 109.498 135.389 117.504 135.389 117.504 135.389"/><rect class="cls-1" x="109.49782" y="53.38091" width="5.45761" height="39.00968"/><polygon class="cls-1" points="109.498 53.381 109.498 92.391 104.717 92.391 104.717 53.381 109.498 53.381 109.498 53.381"/><polygon class="cls-1" points="109.498 94.752 109.498 123.725 103.234 123.725 103.234 94.752 109.498 94.752 109.498 94.752"/><polygon class="cls-1" points="109.498 127.152 109.498 132.523 103.234 132.523 103.234 127.152 109.498 127.152 109.498 127.152"/><polygon class="cls-1" points="109.498 135.389 109.498 146.29 103.234 146.29 103.234 135.389 109.498 135.389 109.498 135.389"/><polygon class="cls-1" points="103.234 93.715 103.234 87.826 103.507 87.826 103.507 93.715 103.234 93.715 103.234 93.715"/><polygon class="cls-1" points="103.234 87.034 103.234 81.144 103.507 81.144 103.507 87.034 103.234 87.034 103.234 87.034"/><polygon class="cls-1" points="103.234 80.539 103.234 74.362 103.507 74.362 103.507 80.539 103.234 80.539 103.234 80.539"/><path class="cls-1" d="M952.723,368.038V352.18359c.1008-.1008.216-.216.3168-.3312V368.038Z" transform="translate(-849.48923 -295.41868)"/><path class="cls-1" d="M952.723,352.18359V368.038h-6.27841V356.6044a21.66081,21.66081,0,0,0,6.27841-4.42081Z" transform="translate(-849.48923 -295.41868)"/><polygon class="cls-1" points="103.234 74.362 103.234 80.539 96.955 80.539 96.955 74.362 103.234 74.362 103.234 74.362"/><polygon class="cls-1" points="103.234 81.144 103.234 87.034 96.955 87.034 96.955 81.144 103.234 81.144 103.234 81.144"/><polygon class="cls-1" points="103.234 87.826 103.234 93.715 96.955 93.715 96.955 87.826 103.234 87.826 103.234 87.826"/><polygon class="cls-1" points="103.234 94.752 103.234 123.725 96.955 123.725 96.955 94.752 103.234 94.752 103.234 94.752"/><polygon class="cls-1" points="103.234 127.152 103.234 132.523 96.955 132.523 96.955 127.152 103.234 127.152 103.234 127.152"/><polygon class="cls-1" points="103.234 135.389 103.234 146.29 96.955 146.29 96.955 135.389 103.234 135.389 103.234 135.389"/><path class="cls-1" d="M946.44463,356.6044V368.038h-6.336V358.4908a22.6223,22.6223,0,0,0,6.336-1.8864Z" transform="translate(-849.48923 -295.41868)"/><polygon class="cls-1" points="96.955 74.362 96.955 80.539 90.619 80.539 90.619 74.362 96.955 74.362 96.955 74.362"/><polygon class="cls-1" points="96.955 81.144 96.955 87.034 90.619 87.034 90.619 81.144 96.955 81.144 96.955 81.144"/><polygon class="cls-1" points="96.955 87.826 96.955 93.715 96.106 93.715 96.12 93.672 90.619 91.455 90.619 87.826 96.955 87.826 96.955 87.826"/><polygon class="cls-1" points="96.955 94.752 96.955 123.725 92.765 123.725 90.619 122.487 90.619 112.335 95.919 94.752 96.955 94.752 96.955 94.752"/><polygon class="cls-1" points="96.955 127.152 96.955 132.523 94.997 132.523 94.997 127.152 96.955 127.152 96.955 127.152"/><polygon class="cls-1" points="96.955 135.389 96.955 146.29 90.619 146.29 90.619 139.219 93.6 135.389 96.955 135.389 96.955 135.389"/><polygon class="cls-1" points="90.619 103.104 93.226 94.752 90.619 93.658 90.619 103.104"/><path class="cls-1" d="M940.10862,358.4908V368.038h-12.672v-3.68641c1.296-1.1808,5.74561-4.91041,10.69922-5.688a12.83643,12.83643,0,0,0,1.97281-.1728Z" transform="translate(-849.48923 -295.41868)"/><polygon class="cls-1" points="90.619 74.362 90.619 80.539 82.426 80.539 82.426 74.362 90.619 74.362 90.619 74.362"/><polygon class="cls-1" points="90.619 81.144 90.619 87.034 82.426 87.034 82.426 81.144 90.619 81.144 90.619 81.144"/><polygon class="cls-1" points="90.619 87.826 90.619 91.455 88.229 90.504 87.163 93.715 82.426 93.715 82.426 87.826 90.619 87.826 90.619 87.826"/><polygon class="cls-1" points="90.619 93.658 89.712 93.283 77.947 130.421 77.947 143.539 90.619 103.104 90.619 93.658 90.619 93.658"/><polygon class="cls-1" points="90.619 112.335 90.619 122.487 87.999 121.003 90.619 112.335 90.619 112.335"/><polygon class="cls-1" points="90.619 139.219 90.619 146.29 88.719 146.29 88.719 141.667 90.619 139.219 90.619 139.219"/><path class="cls-1" d="M984.4895,457.9374V444.55977h3.25441V457.9374Zm0-13.37763V457.9374h-.288V444.55977Zm-.288,0V457.9374h-4.5504V444.55977Zm-4.5504,0V457.9374h-4.83841V444.55977Zm-4.83841,0V457.9374h-7.81922V444.55977Zm-7.81922,0V457.9374h-8.00642V444.55977Zm-8.00642,0V457.9374h-6.264V444.55977Zm-6.264,0V457.9374h-6.27841V444.55977Zm-6.27841,0V457.9374h-6.336V444.55977Zm-6.336,0V457.9374H933.5422V444.55977Z" transform="translate(-849.48923 -295.41868)"/><path class="cls-1" d="M927.43659,453.84779v-3.6576l2.0304.9072-1.0944,2.6064s-.3456.072-.936.144Z" transform="translate(-849.48923 -295.41868)"/><polygon class="cls-1" points="77.947 115.243 77.947 94.752 86.659 94.752 79.935 116.381 77.947 115.243"/><path class="cls-1" d="M927.43659,364.35161V368.038h-.3744v-3.34081s.1296-.1296.3744-.3456Z" transform="translate(-849.48923 -295.41868)"/><polygon class="cls-1" points="77.947 94.752 77.947 115.243 73.368 112.623 73.368 94.752 77.947 94.752 77.947 94.752"/><path class="cls-1" d="M927.43659,425.83974v13.11842l-3.08161,9.83522,3.08161,1.39681v3.6576c-1.8.216-5.87521.4464-9.20162-1.1376l-2.9664-1.4112v-2.82241l1.2672-2.7936,4.11841,1.6128,6.78241-21.456Z" transform="translate(-849.48923 -295.41868)"/><polygon class="cls-1" points="65.779 108.36 65.779 94.767 71.799 94.767 71.799 111.931 65.779 108.36 65.779 108.36"/><polygon class="cls-1" points="65.779 94.767 65.779 108.36 64.959 107.871 64.959 94.767 65.779 94.767 65.779 94.767"/><polygon class="cls-1" points="65.779 153.058 65.779 155.88 64.959 155.477 64.959 154.901 65.779 153.058 65.779 153.058"/><polygon class="cls-1" points="64.959 94.767 64.959 107.871 60.869 105.451 60.855 94.767 64.959 94.767 64.959 94.767"/><polygon class="cls-1" points="64.959 154.901 64.959 155.477 64.743 155.376 64.959 154.901 64.959 154.901"/></g></svg>